 <svg  version="1.0" xmlns="http://www.w3.org/2000/svg"  width="450.000000pt" height="450.000000pt" viewBox="0 0 450.000000 450.000000"  preserveAspectRatio="xMidYMid meet">  <g transform="translate(0.000000,450.000000) scale(0.050000,-0.050000)" fill="#000000" stroke="none"> <path d="M4310 7812 c-99 -13 -225 -44 -280 -70 -55 -25 -147 -62 -204 -82 -57 -21 -179 -82 -272 -136 -92 -55 -235 -119 -316 -143 -81 -24 -193 -57 -248 -74 -212 -64 -465 -202 -534 -292 -36 -47 -135 -167 -219 -265 -363 -426 -537 -697 -537 -839 0 -102 -82 -409 -171 -641 -120 -311 -169 -466 -183 -575 -12 -99 13 -128 52 -60 63 108 -11 -207 -123 -525 -54 -153 -172 -375 -286 -537 -47 -68 -38 -105 16 -66 114 82 121 80 65 -15 -58 -99 -47 -113 61 -72 47 18 52 17 39 -15 -8 -19 -30 -80 -49 -135 -20 -55 -64 -157 -100 -227 -50 -100 -72 -187 -34 -141 105 130 253 462 253 569 0 16 10 27 22 24 13 -3 28 8 33 23 6 17 1 22 -12 14 -33 -20 -28 33 6 79 29 38 30 38 30 -6 2 -104 70 -15 110 143 29 112 90 390 94 422 1 11 9 39 18 62 8 23 21 76 28 119 7 42 23 91 37 108 13 17 41 63 62 101 114 210 640 934 649 892 3 -18 -13 -64 -37 -102 -46 -75 -44 -403 3 -432 12 -7 8 -17 -9 -24 -16 -6 -35 -51 -43 -103 -37 -246 -279 -694 -541 -1001 -51 -59 -52 -59 -42 -10 6 28 20 116 32 197 11 80 33 177 49 213 52 124 127 594 89 556 -9 -9 -25 -93 -36 -187 -11 -94 -41 -230 -68 -301 -28 -74 -59 -217 -71 -331 -15 -133 -39 -237 -72 -309 -27 -59 -64 -166 -82 -238 -50 -203 -152 -527 -174 -555 -11 -13 -14 -39 -7 -56 6 -17 3 -26 -6 -20 -10 6 -41 -16 -69 -49 -66 -79 -75 -55 -30 80 20 61 32 85 26 55 -5 -30 -1 -55 10 -55 11 0 18 57 17 135 -4 160 42 420 67 381 10 -15 12 1 4 39 -7 38 -4 65 8 65 26 0 51 -124 28 -139 -30 -19 -83 -232 -81 -324 2 -105 32 -36 36 83 2 53 7 63 22 40 14 -22 19 -7 20 56 0 47 13 105 29 130 31 48 -4 174 -48 174 -12 0 -22 16 -23 35 -1 19 -18 -37 -39 -125 -20 -88 -74 -263 -118 -390 -45 -126 -110 -315 -143 -420 -34 -104 -76 -206 -93 -225 -70 -78 24 -118 109 -47 l58 49 -8 -297 c-11 -374 17 -502 73 -340 28 79 56 76 92 -10 24 -57 60 -90 74 -65 1 3 9 140 18 305 19 367 35 487 69 542 55 86 75 235 118 888 11 161 73 325 163 423 37 42 101 126 141 186 107 161 103 126 -21 -166 -31 -74 -56 -174 -59 -240 -3 -62 -22 -171 -41 -242 -20 -73 -31 -162 -25 -205 6 -42 3 -76 -6 -76 -9 0 -23 -26 -30 -59 -7 -32 -25 -69 -41 -82 -16 -13 -29 -40 -29 -59 0 -60 -53 -169 -67 -138 -6 15 -10 1 -7 -32 9 -125 154 4 154 138 0 34 10 97 22 141 l22 79 37 -49 36 -48 73 59 c103 86 390 772 390 935 0 30 22 138 49 240 27 102 63 248 80 325 31 134 73 205 133 219 74 18 118 37 118 52 0 41 212 214 234 191 7 -6 25 4 41 23 27 33 28 33 17 -2 -7 -20 -12 -44 -12 -53 0 -24 -164 -100 -187 -86 -12 7 -15 -1 -7 -20 8 -22 3 -29 -15 -22 -15 6 -33 1 -40 -11 -7 -11 -4 -21 7 -21 11 0 16 -13 9 -30 -6 -16 -19 -25 -30 -18 -10 6 -17 4 -15 -6 9 -54 -7 -107 -38 -124 -32 -17 -36 -12 -28 41 8 50 3 60 -27 54 -100 -19 -59 -231 53 -278 75 -31 77 -28 59 86 -28 179 78 315 306 396 182 63 313 41 313 -53 0 -17 23 -53 51 -80 42 -43 48 -63 37 -122 -19 -100 32 -79 72 29 27 72 34 79 65 56 31 -23 35 -68 35 -418 0 -216 5 -393 11 -393 93 0 209 132 209 238 0 78 88 53 150 -43 111 -172 198 -224 290 -175 41 22 39 26 -51 153 l-93 130 61 61 c151 147 121 427 -57 520 -74 38 -345 51 -396 19 -42 -27 -208 69 -236 135 -31 74 -101 122 -180 122 l-63 0 44 125 c89 251 316 580 346 499 5 -14 0 -36 -11 -50 -50 -60 -53 -180 -4 -154 98 52 211 191 255 310 73 202 167 586 155 634 -13 52 67 138 285 306 l125 96 257 -1 c141 -1 269 7 285 17 20 12 21 17 3 18 -14 0 -25 10 -25 21 0 12 9 16 20 9 11 -7 20 -3 20 8 0 11 -27 17 -60 13 -44 -6 -68 3 -90 35 -35 49 -40 31 -8 -29 11 -22 33 -35 49 -29 15 5 32 3 38 -7 14 -22 -58 -40 -88 -21 -14 8 -24 20 -23 27 3 34 -25 135 -41 145 -9 6 -11 35 -4 64 12 49 10 51 -20 27 -38 -32 -46 -4 -9 33 41 41 -15 27 -73 -18 -29 -24 -49 -54 -44 -67 5 -14 1 -37 -9 -53 -13 -21 -17 -22 -18 -2 0 15 -10 20 -23 12 -12 -8 -6 16 15 51 93 161 226 178 227 30 1 -106 46 -146 120 -105 33 18 65 25 71 15 21 -33 6 -188 -25 -264 -42 -101 -22 -112 66 -39 271 223 321 628 106 858 -23 23 -35 53 -28 65 47 76 -80 163 -310 211 -160 34 -181 34 -429 2z m445 -148 c30 -3 57 -30 85 -88 l40 -84 -48 -51 c-26 -28 -61 -78 -78 -111 -40 -79 -102 -134 -229 -202 -121 -65 -226 -165 -230 -221 -3 -34 -10 -36 -50 -18 -38 17 -45 34 -41 91 4 47 -2 68 -19 65 -24 -5 -25 46 -2 85 43 70 53 175 24 260 l-30 88 66 61 c109 99 286 142 512 125z m-574 -53 c-13 -16 -38 -23 -56 -16 -21 8 -27 4 -17 -11 9 -16 3 -19 -17 -12 -42 16 -39 26 14 47 73 30 104 26 76 -8z m-141 -41 c14 -16 37 -30 52 -30 36 0 35 -15 0 -51 -31 -31 -169 -16 -243 27 -37 21 -36 23 11 24 28 1 67 14 89 31 48 36 60 36 91 -1z m1028 -76 c32 -44 34 -57 12 -84 -14 -17 -19 -37 -12 -45 8 -8 21 -2 30 12 13 21 19 19 29 -6 7 -18 5 -28 -5 -22 -10 6 -29 -3 -43 -20 -23 -28 -19 -30 33 -18 54 13 55 12 20 -16 -22 -17 -32 -39 -23 -53 11 -18 21 -18 43 -1 37 31 39 -23 3 -84 -20 -34 -20 -44 0 -51 18 -7 16 -18 -8 -42 -21 -21 -25 -35 -10 -40 34 -11 28 -44 -8 -44 -20 0 -29 -13 -24 -35 4 -19 -13 -54 -37 -77 -24 -23 -49 -61 -57 -85 -20 -64 -55 -53 -37 12 33 119 -23 356 -79 334 -41 -16 -31 311 11 372 19 26 34 60 34 76 0 38 73 -10 128 -83z m-1288 -16 c-22 -15 -13 -17 35 -8 41 8 65 5 65 -8 0 -12 -16 -22 -35 -22 -19 0 -48 -9 -65 -20 -40 -25 114 -4 172 23 32 16 57 11 107 -20 l66 -40 -97 -14 c-73 -11 -88 -19 -58 -29 22 -8 54 -9 70 -3 22 8 21 2 -5 -25 -26 -25 -52 -32 -95 -22 -65 14 -186 -5 -172 -27 6 -10 139 -12 254 -4 7 1 33 19 58 41 52 45 98 55 55 13 -52 -53 -165 -99 -235 -96 -81 3 -233 -60 -174 -73 20 -4 49 4 65 17 16 13 63 26 104 29 41 2 97 11 123 19 39 13 46 10 36 -17 -7 -18 -3 -32 11 -32 17 0 17 -6 -1 -24 -35 -35 -29 -91 15 -135 23 -23 31 -45 20 -52 -25 -15 -80 -144 -90 -209 -4 -27 -2 -39 4 -25 6 14 22 25 36 25 13 0 41 18 61 40 20 22 26 40 14 40 -13 0 -17 14 -10 33 9 23 5 29 -11 19 -24 -15 -32 12 -10 34 17 17 66 -47 66 -86 1 -43 -139 -172 -204 -187 -30 -8 -55 -23 -55 -35 0 -11 -8 -15 -18 -9 -10 6 9 39 42 72 34 33 55 67 47 75 -8 8 -41 -16 -74 -53 -41 -46 -54 -74 -40 -88 12 -12 13 -38 3 -65 -10 -25 -13 -51 -7 -56 6 -6 -8 -20 -30 -32 -40 -22 -97 -155 -75 -177 7 -6 12 -1 12 13 0 13 18 43 40 67 22 23 40 32 40 20 0 -12 -10 -29 -22 -36 -12 -7 -17 -32 -11 -54 7 -25 -21 -97 -75 -193 -47 -83 -111 -204 -141 -267 -55 -113 -81 -149 -58 -80 7 20 -11 9 -42 -25 -74 -84 -31 5 62 128 73 96 89 148 29 94 -30 -27 -40 -29 -50 -8 -6 14 -7 8 -2 -15 11 -43 -117 -235 -217 -327 -29 -27 -53 -60 -53 -74 0 -13 -7 -28 -16 -31 -8 -4 -46 -46 -84 -93 -38 -47 -79 -81 -94 -75 -14 5 -26 -2 -26 -17 0 -15 -20 -41 -45 -57 l-45 -31 55 3 c30 2 55 13 55 26 0 12 15 28 33 35 27 11 28 8 8 -17 -13 -16 -18 -40 -10 -53 10 -16 7 -19 -11 -8 -20 12 -23 7 -13 -22 12 -36 12 -36 -15 -2 -24 32 -29 32 -40 3 -18 -48 -15 -73 8 -59 11 7 20 3 20 -9 0 -11 -13 -21 -30 -21 -16 0 -30 -13 -30 -29 0 -16 -8 -34 -18 -40 -20 -12 3 109 28 149 10 16 6 22 -11 16 -14 -4 -37 -44 -50 -87 l-23 -79 2 85 c1 55 11 85 28 85 19 0 20 10 5 39 -33 61 -27 77 77 187 135 143 263 317 249 339 -6 10 -24 2 -39 -19 -15 -20 -64 -85 -109 -146 -44 -60 -90 -108 -102 -105 -11 4 -15 -2 -9 -12 6 -9 -12 -39 -41 -65 -65 -61 -97 -139 -65 -159 44 -28 -5 -59 -92 -59 -75 0 -88 7 -96 45 -7 39 -9 38 -11 -9 -2 -29 6 -59 17 -66 63 -39 -51 -250 -135 -250 -17 0 -21 -10 -12 -25 8 -15 -1 -12 -22 5 -40 32 -30 -45 11 -89 10 -10 18 -28 18 -40 0 -12 -9 -7 -20 9 -14 22 -19 23 -20 4 0 -15 -9 -21 -20 -14 -12 7 -15 22 -9 32 17 27 -29 78 -70 78 -26 0 -35 -18 -37 -71 -2 -39 -13 -86 -25 -105 -21 -32 -21 -32 -11 1 7 22 0 35 -19 35 -16 0 -29 -10 -29 -23 0 -13 -5 -18 -12 -12 -17 17 31 98 51 85 10 -5 15 13 12 42 -7 62 57 137 102 120 23 -9 22 1 -7 49 -24 41 -29 65 -14 75 12 8 21 60 20 117 -2 86 -7 100 -30 81 -23 -20 -25 -10 -12 56 8 44 16 140 17 214 1 75 10 132 21 130 11 -2 21 12 21 31 1 19 9 34 19 34 9 -1 34 36 54 81 21 46 45 78 55 72 10 -6 24 16 30 50 7 33 21 56 30 50 10 -7 31 4 46 23 24 32 24 32 -8 8 -50 -40 -43 -8 14 59 30 36 51 48 57 33 4 -14 5 -6 1 18 -3 23 9 64 28 90 36 48 73 110 116 193 14 27 30 38 38 26 7 -11 -10 -57 -38 -101 -28 -44 -51 -94 -51 -112 0 -18 -10 -25 -22 -18 -15 10 -18 0 -9 -28 8 -25 5 -43 -7 -43 -11 0 -16 -13 -9 -30 6 -16 -3 -95 -20 -175 -17 -80 -36 -167 -41 -195 -5 -27 -6 15 -2 95 4 79 -1 149 -11 156 -21 13 -25 -27 -20 -201 2 -66 3 -203 3 -305 0 -175 28 -268 34 -113 2 40 11 83 21 95 29 37 46 133 23 133 -11 0 -20 -24 -20 -53 0 -30 -6 -48 -13 -41 -14 14 24 288 54 384 10 33 22 105 27 160 4 55 9 111 10 124 1 14 16 20 32 13 18 -7 30 0 30 16 0 15 12 50 27 78 24 47 30 135 12 189 -12 36 23 111 46 97 12 -7 15 -4 8 8 -8 12 -5 43 5 69 10 25 34 100 54 166 19 66 39 108 43 95 5 -14 17 -20 28 -13 12 7 10 22 -4 40 -13 15 -18 29 -11 31 6 1 21 4 32 7 11 3 29 6 40 8 11 1 20 12 20 23 0 12 -11 15 -25 7 -17 -9 -18 -7 -5 6 33 33 187 86 217 74 15 -5 41 3 58 19 16 17 60 49 97 71 37 23 56 42 41 42 -29 0 -144 -75 -167 -108 -8 -12 -20 -15 -27 -7 -8 7 12 37 44 66 31 29 46 46 32 39 -62 -31 -17 25 47 60 61 33 66 40 35 53 -44 17 18 26 128 18 36 -2 65 6 65 17 0 12 -25 22 -55 22 -44 1 -49 5 -25 22 22 16 9 18 -50 9 -72 -11 -76 -9 -44 17 27 21 30 30 10 38 -14 5 -6 9 18 8 24 -1 39 -9 33 -18 -5 -9 10 -16 34 -16 29 0 40 9 32 29 -10 27 12 46 57 49 11 1 7 -8 -10 -20z m-280 -117 c0 -10 -18 -24 -40 -31 -22 -7 -51 -24 -66 -39 -14 -14 -48 -32 -75 -40 -27 -8 1 17 61 56 129 82 120 78 120 54z m84 -22 c-26 -10 -42 -26 -36 -35 5 -9 -17 -33 -50 -52 -42 -25 -57 -46 -48 -68 7 -18 6 -26 -2 -19 -8 8 -26 -2 -41 -23 -14 -20 -64 -47 -111 -59 -94 -24 -182 -115 -220 -228 -31 -92 -54 -112 -84 -71 -16 22 -41 30 -68 23 -43 -11 -43 -11 -11 82 17 51 27 98 21 104 -6 6 -23 -28 -37 -76 -24 -80 -75 -161 -78 -123 -1 9 -10 -2 -21 -24 -13 -28 -15 -11 -7 57 8 67 5 93 -9 84 -12 -7 -22 -26 -22 -41 0 -15 -10 -53 -22 -84 l-23 -56 -24 57 c-17 38 -29 48 -36 30 -92 -231 -93 -235 -64 -224 20 8 26 2 18 -20 -7 -17 -24 -26 -38 -21 -31 12 -58 -45 -30 -63 10 -6 19 0 19 13 0 14 5 19 12 13 6 -7 2 -28 -10 -48 -16 -28 -21 -30 -22 -7 -1 27 -3 27 -21 0 -24 -37 -9 70 21 150 11 29 19 72 18 96 -1 24 -19 -13 -41 -83 -22 -70 -45 -122 -51 -115 -7 6 -24 -4 -39 -23 -32 -40 -18 52 17 122 11 20 14 42 8 48 -15 15 -33 -3 -40 -38 -3 -15 -12 -43 -19 -62 -7 -19 -19 -51 -25 -70 -9 -24 -16 -27 -22 -9 -5 14 4 61 22 105 17 43 27 79 22 79 -16 0 -90 -157 -90 -190 0 -19 -9 -27 -23 -18 -14 9 -18 5 -9 -9 8 -13 0 -43 -17 -67 -17 -25 -30 -68 -29 -95 1 -47 4 -45 35 21 18 39 44 68 56 64 13 -5 30 11 37 36 11 33 18 37 31 16 14 -23 23 -20 48 12 24 32 30 34 30 8 3 -125 181 14 181 141 0 19 28 65 61 102 34 38 56 53 48 34 -19 -50 23 -44 59 9 17 24 37 38 44 30 7 -7 28 -5 47 5 18 10 45 11 59 2 56 -34 -410 -880 -476 -866 -14 4 -19 -3 -12 -15 11 -17 -105 -170 -225 -296 -14 -15 -25 -35 -25 -45 0 -123 462 523 662 926 116 232 188 338 137 200 -108 -289 -361 -684 -864 -1346 -118 -155 -298 -408 -400 -560 -102 -153 -196 -278 -210 -278 -14 -1 -25 -15 -25 -32 0 -19 9 -26 23 -17 16 10 20 3 11 -20 -14 -34 -71 -265 -86 -342 -4 -22 -13 -67 -19 -100 -34 -176 -76 -332 -92 -342 -25 -15 -9 231 15 249 10 7 18 63 18 123 0 78 14 136 47 198 31 57 50 130 54 208 6 105 21 146 126 322 65 111 177 319 248 462 71 143 156 305 189 360 92 155 300 703 276 727 -6 5 -11 -3 -11 -19 -1 -16 -9 -11 -18 12 -13 34 -17 30 -30 -30 -27 -129 -89 -318 -120 -366 -17 -26 -26 -52 -20 -58 5 -6 -80 -186 -190 -400 -110 -215 -204 -382 -209 -373 -5 10 -6 7 -3 -7 13 -58 -178 -385 -213 -364 -13 9 -17 5 -8 -9 8 -13 2 -41 -13 -62 -25 -36 -28 -31 -23 53 3 50 17 100 32 109 14 9 18 17 7 17 -10 0 -1 14 20 31 22 18 28 26 15 20 -14 -7 -5 24 18 68 43 80 76 104 76 56 1 -17 6 -16 19 4 21 33 7 67 -21 50 -10 -6 -8 11 5 39 12 28 32 45 43 38 11 -7 14 -2 6 11 -15 24 105 243 134 243 9 0 10 -10 2 -23 -9 -15 -5 -18 11 -8 18 11 18 22 3 37 -28 28 -29 61 -2 44 11 -7 20 -3 20 9 0 43 143 318 171 329 16 6 29 22 29 36 -1 17 -6 19 -15 5 -68 -99 -74 -31 -12 133 37 98 67 201 67 230 0 28 27 90 60 138 67 98 74 120 30 103 -52 -20 57 166 171 293 57 64 115 112 129 107 14 -5 43 15 66 46 29 40 56 54 92 50 37 -4 54 6 64 38 13 44 36 74 136 175 69 70 84 65 42 -14 -16 -32 -29 -71 -29 -88 0 -16 21 10 45 59 43 88 118 149 84 69 -23 -56 -29 -150 -7 -136 10 6 16 22 14 35 -7 47 29 135 64 154 72 38 76 17 15 -81 -34 -55 -57 -105 -51 -111 6 -6 42 46 82 116 66 120 75 128 140 127 65 -1 68 -4 36 -34 -18 -18 -36 -25 -39 -16 -7 16 -124 -107 -124 -130 0 -6 9 -12 20 -12 11 0 20 14 20 30 0 17 21 39 47 49 25 10 70 45 98 79 52 62 90 84 63 37 -8 -14 12 -2 44 27 85 76 153 118 187 117 18 -1 11 -9 -15 -20z m1236 -57 c0 -21 10 -42 22 -46 13 -4 19 -25 15 -45 -6 -35 -11 -34 -62 13 -36 33 -51 63 -43 84 17 45 68 40 68 -6z m63 -283 c-92 -75 -127 -50 -59 42 40 54 47 57 75 28 28 -29 27 -35 -16 -70z m-446 16 c-65 -55 -104 -128 -89 -167 6 -15 1 -28 -10 -28 -11 0 -15 -9 -8 -20 7 -11 2 -20 -11 -20 -13 0 -18 14 -11 32 7 17 12 52 12 77 0 46 109 171 149 171 11 0 -3 -20 -32 -45z m201 -15 c22 -45 21 -46 -5 -14 -26 33 -29 30 -42 -35 -7 -39 -21 -71 -32 -71 -27 0 -24 30 11 114 33 79 34 79 68 6z m-1941 -38 c-27 -42 -75 -70 -92 -54 -5 6 15 33 46 61 63 58 84 55 46 -7z m-631 -582 c-28 -55 -59 -100 -69 -100 -9 0 11 45 45 100 34 55 65 100 69 100 4 0 -16 -45 -45 -100z m86 23 c-17 -20 -28 -53 -24 -75 6 -28 -3 -39 -30 -39 -21 0 -38 0 -38 1 0 5 74 145 89 169 14 22 20 23 27 4 4 -14 -6 -41 -24 -60z m-52 -134 c0 -2 -12 -28 -28 -57 l-27 -54 -10 51 c-5 27 -6 53 -2 57 8 8 67 10 67 3z m-100 -54 c-1 -71 -31 -108 -55 -65 -18 32 -20 32 -32 1 -8 -22 -5 -28 10 -19 14 9 18 5 9 -9 -8 -13 -28 -23 -46 -23 -28 0 -28 5 -1 45 16 25 42 45 57 45 16 1 25 16 22 35 -3 19 4 35 15 35 12 0 21 -20 21 -45z m44 -199 c-23 -58 -71 -190 -108 -293 l-66 -188 -6 94 c-4 59 5 111 23 139 16 25 23 56 14 70 -21 34 -57 -117 -67 -282 -7 -108 -21 -152 -71 -228 l-63 -95 0 64 c0 34 -10 63 -22 63 -14 0 -17 -29 -10 -83 11 -75 -2 -108 -119 -329 -149 -282 -206 -346 -149 -168 14 43 17 45 21 10 2 -22 11 20 20 93 8 73 30 158 47 190 l32 57 -12 -60 c-33 -166 -33 -176 -11 -162 13 8 23 34 23 58 1 70 23 135 42 123 32 -20 19 16 -15 41 -26 19 -28 32 -10 62 20 35 22 34 24 -12 2 -46 3 -46 18 -10 9 22 9 49 0 61 -9 11 1 59 22 107 22 47 39 103 39 123 0 20 10 43 22 50 16 10 18 -5 9 -48 -9 -38 -6 -63 6 -63 20 0 50 99 39 132 -7 22 42 147 74 188 12 17 48 95 79 175 52 132 131 245 131 188 0 -39 37 -26 50 19 8 22 18 36 24 31 6 -6 -8 -59 -30 -117z m1725 22 c-7 -24 -15 -54 -17 -67 -5 -37 -155 -234 -168 -222 -6 7 8 36 31 66 24 30 67 102 97 160 57 110 80 135 57 63z m-49 -235 c0 -25 -97 -133 -109 -121 -5 6 14 39 44 74 59 69 65 73 65 47z m-1280 -223 c0 -11 -10 -20 -22 -20 -12 0 -17 -14 -10 -32 7 -17 -1 -50 -17 -73 -45 -64 -63 5 -22 83 31 60 71 83 71 42z m-104 -261 c-1 -33 8 -71 21 -84 17 -17 23 -14 23 14 0 21 6 31 14 23 19 -18 23 -273 5 -261 -8 4 -25 51 -39 104 -23 85 -27 90 -39 45 -8 -27 -9 -54 -2 -60 54 -48 75 -153 39 -198 -21 -26 -38 -37 -38 -25 0 11 9 26 20 33 11 7 20 21 20 32 0 11 -10 14 -22 7 -15 -10 -18 0 -9 29 9 27 2 53 -18 74 -21 21 -27 48 -17 84 7 30 15 81 16 114 5 96 9 130 19 130 4 0 8 -27 7 -61z m562 -185 c-1 -13 -10 -46 -20 -74 -15 -43 -16 -40 -8 17 9 59 6 64 -20 43 -17 -14 -30 -51 -30 -82 0 -32 -8 -58 -19 -58 -35 0 -43 38 -17 82 21 34 21 45 1 52 -48 18 -24 40 45 42 44 2 69 -6 68 -22z m213 -175 c7 -12 25 -17 40 -11 16 6 42 -3 58 -20 17 -17 39 -26 48 -20 10 6 34 -7 55 -30 28 -32 31 -44 11 -56 -20 -13 -18 -19 8 -30 19 -7 46 -2 62 10 39 33 33 -4 -11 -60 l-37 -49 -29 59 c-16 32 -26 73 -22 90 8 33 -63 58 -166 58 -36 0 -44 8 -35 35 12 33 11 33 -15 0 -28 -35 -158 -84 -158 -59 1 32 35 63 75 70 24 3 50 13 58 20 20 20 43 17 58 -7z m384 -192 c39 24 96 -39 67 -74 -34 -41 -121 14 -121 77 0 30 4 33 17 12 10 -15 26 -22 37 -15z m445 -227 c97 -97 12 -220 -151 -220 -47 0 -49 6 -49 130 l0 130 80 0 c53 0 93 -13 120 -40z m-2543 -301 c-22 -82 -43 -192 -46 -245 -4 -53 -20 -111 -37 -130 -16 -19 -35 -52 -42 -74 -17 -53 -71 -115 -136 -158 l-54 -35 24 50 c13 27 30 45 39 40 8 -5 15 5 15 23 0 19 9 27 23 18 16 -10 20 2 13 39 -9 43 -5 49 17 31 34 -29 36 5 2 41 -20 22 -19 25 10 15 28 -10 35 -1 35 44 0 60 42 112 70 87 9 -8 9 -3 1 12 -15 26 4 120 63 309 46 149 49 101 3 -67z m765 25 c-11 -21 -24 -69 -29 -106 -12 -97 -48 -244 -81 -333 -16 -41 -34 -100 -41 -131 -7 -34 -21 -50 -35 -42 -14 9 -17 5 -7 -10 13 -22 -52 -220 -90 -272 -8 -11 -20 -48 -28 -82 -14 -65 -91 -85 -106 -26 -6 20 -3 21 9 4 29 -40 75 6 79 78 4 97 41 236 129 486 12 33 23 78 25 100 3 22 15 38 28 35 13 -2 19 8 13 23 -6 15 -1 34 11 41 12 8 21 -2 21 -21 0 -19 5 -29 12 -23 6 7 5 32 -2 56 -8 24 -20 36 -27 25 -29 -42 -84 -47 -58 -5 14 21 31 39 40 39 8 0 15 16 15 35 1 27 4 29 18 8 13 -20 21 -21 31 -4 8 13 -2 43 -22 67 l-37 44 48 -40 47 -40 -14 48 c-10 29 -8 42 5 35 11 -7 25 7 31 31 6 24 17 39 24 32 7 -7 3 -30 -9 -52z m-301 -572 c-18 -22 -18 -40 -2 -71 16 -29 16 -41 1 -41 -13 0 -17 -8 -11 -19 6 -10 3 -24 -8 -31 -13 -7 -18 17 -14 64 7 83 32 154 48 137 6 -5 0 -23 -14 -39z m-561 -1003 c0 -18 -10 -25 -22 -18 -15 10 -18 0 -9 -29 15 -45 -9 -430 -24 -387 -5 14 -19 19 -32 12 -15 -8 -14 -3 2 14 14 15 25 41 24 58 0 24 -7 22 -32 -9 -30 -38 -31 -35 -18 40 13 75 12 77 -17 40 -66 -86 -2 152 67 249 49 69 61 75 61 30z"/> <path d="M4433 7587 c-23 -24 -14 -81 18 -108 46 -38 128 44 90 90 -27 32 -84 41 -108 18z"/> <path d="M4520 7409 c0 -16 -13 -35 -30 -42 -16 -6 -30 -19 -30 -29 0 -9 15 -11 33 -4 23 9 29 5 19 -10 -9 -16 -3 -19 21 -10 22 8 26 16 11 21 -13 5 -18 19 -10 32 23 35 25 73 4 73 -10 0 -18 -14 -18 -31z"/> <path d="M4377 7322 c21 -13 13 -22 -30 -38 -48 -18 -50 -21 -14 -22 67 -3 106 18 94 50 -6 15 -26 28 -44 28 -26 -1 -27 -4 -6 -18z"/> <path d="M3607 7133 c-35 -24 -113 -86 -173 -138 -67 -59 -121 -91 -139 -84 -34 13 -135 -83 -135 -128 0 -17 16 -9 42 20 22 26 35 36 28 22 -17 -35 20 -31 50 5 19 22 19 30 1 30 -13 0 -17 10 -10 22 10 16 19 14 32 -5 11 -17 22 -20 32 -7 8 11 49 46 90 76 42 31 97 76 123 100 26 24 69 59 95 77 26 18 43 37 37 43 -5 5 -38 -10 -73 -33z"/> <path d="M3909 7144 c-60 -33 -70 -36 -137 -41 -21 -2 -33 -9 -26 -16 8 -7 4 -25 -9 -40 -35 -42 11 -32 59 14 24 22 44 35 44 28 0 -7 33 7 74 31 49 28 65 32 47 12 -14 -18 -17 -32 -6 -32 11 0 30 12 43 28 36 43 -19 53 -89 16z"/> <path d="M3877 7066 c-13 -15 -18 -32 -12 -38 11 -10 155 43 155 58 0 21 -124 4 -143 -20z"/> <path d="M3410 6891 c-123 -115 -133 -129 -84 -123 30 3 61 13 69 22 8 9 4 10 -10 2 -45 -26 -26 19 31 74 57 55 98 72 72 31 -9 -15 -5 -18 10 -8 14 8 20 20 15 25 -6 6 14 31 43 57 37 33 45 48 24 48 -17 1 -93 -57 -170 -128z"/> <path d="M3780 6976 c-22 -25 -37 -56 -31 -70 5 -14 3 -26 -6 -26 -8 0 -37 -36 -64 -79 -27 -44 -56 -80 -64 -80 -20 -1 -19 -61 0 -61 9 0 33 32 55 72 21 39 72 107 114 150 72 74 98 138 57 138 -11 0 -38 -20 -61 -44z"/> <path d="M3970 7005 c-45 -34 -72 -105 -40 -105 17 0 37 -14 43 -31 10 -25 20 -19 47 25 44 71 29 100 -26 52 l-42 -36 34 55 c34 53 26 71 -16 40z"/> <path d="M3518 6873 c-156 -153 -203 -216 -182 -237 14 -14 28 -5 45 27 14 26 30 52 37 58 7 5 61 62 121 125 127 132 109 156 -21 27z"/> <path d="M3590 6845 c-97 -97 -154 -182 -145 -219 7 -28 14 -23 33 24 13 33 49 87 79 120 115 126 139 180 33 75z"/> <path d="M3830 6739 c-33 -32 -50 -59 -39 -59 33 0 150 92 135 107 -20 21 -32 15 -96 -48z"/> <path d="M3709 6725 c-39 -28 -109 -141 -109 -177 0 -21 24 2 60 58 32 52 68 94 80 94 11 0 20 9 20 20 0 23 -21 25 -51 5z"/> <path d="M3066 6539 c-22 -138 -3 -135 31 5 28 112 28 116 6 116 -10 0 -26 -54 -37 -121z"/> <path d="M3191 6562 c-14 -43 -31 -143 -39 -232 -7 -65 -79 -220 -124 -265 -34 -34 -54 -109 -43 -158 5 -25 17 -9 35 49 19 60 32 78 45 60 11 -17 13 -10 5 19 -7 25 -5 45 4 45 32 0 93 128 109 227 17 108 31 134 54 98 10 -16 25 3 42 50 15 41 36 81 46 88 11 7 14 22 7 34 -19 30 -76 4 -64 -30 6 -15 1 -27 -10 -27 -11 0 -16 -16 -9 -36 8 -25 0 -36 -29 -39 -43 -3 -51 15 -22 46 29 31 47 109 25 109 -11 0 -26 -17 -32 -38z"/> <path d="M3683 6549 c-13 -29 -18 -61 -11 -73 11 -16 68 82 68 116 0 28 -38 -1 -57 -43z"/> <path d="M3363 6416 c-26 -53 -34 -89 -22 -97 11 -7 14 -29 6 -50 -13 -33 -11 -34 16 -9 17 16 27 45 22 64 -5 20 5 58 23 85 36 55 41 91 14 91 -10 0 -37 -38 -59 -84z"/> <path d="M3507 6405 c-30 -20 -147 -238 -147 -275 0 -54 37 -31 50 30 7 33 44 105 82 160 64 94 69 119 15 85z"/> <path d="M3585 6366 c-25 -29 -41 -56 -37 -61 15 -15 131 80 120 98 -16 27 -35 18 -83 -37z"/> <path d="M3664 6321 c-41 -56 -41 -58 -5 -56 21 2 37 8 36 14 -1 6 6 27 14 47 26 60 1 57 -45 -5z"/> <path d="M3260 6302 c0 -20 -14 -71 -31 -112 -17 -41 -27 -79 -21 -85 6 -6 17 5 24 24 9 24 18 27 28 11 8 -13 14 2 14 33 -1 31 6 82 14 112 11 36 9 55 -6 55 -12 0 -22 -17 -22 -38z"/> <path d="M3585 6227 c-27 -11 -85 -111 -85 -146 0 -45 32 -16 75 70 25 49 43 88 40 87 -3 0 -16 -6 -30 -11z"/> <path d="M3643 6109 c-28 -61 -29 -89 -5 -89 20 0 52 116 37 132 -5 4 -19 -15 -32 -43z"/> <path d="M3145 6023 c-52 -63 -57 -86 -13 -70 28 11 78 104 63 118 -3 3 -25 -18 -50 -48z"/> <path d="M3490 5979 c-8 -25 -25 -38 -42 -31 -32 12 -142 -81 -120 -102 7 -8 36 12 62 45 27 32 49 49 49 36 1 -12 -13 -34 -30 -48 -17 -14 -27 -35 -22 -47 4 -12 -10 -42 -32 -66 -21 -24 -35 -55 -30 -70 6 -16 19 -6 35 28 14 30 33 50 42 45 8 -5 21 -1 27 9 6 11 2 25 -9 32 -12 7 8 48 50 98 73 89 83 112 51 112 -10 0 -24 -19 -31 -41z"/> <path d="M3191 5948 c-19 -28 -28 -57 -21 -64 13 -13 89 73 90 101 1 32 -37 12 -69 -37z"/> <path d="M3265 5930 c-48 -75 -54 -90 -30 -90 15 0 105 129 105 150 0 29 -35 1 -75 -60z"/> <path d="M2653 5879 c-7 -34 -20 -57 -28 -52 -32 20 -39 -321 -7 -353 12 -12 22 -67 22 -121 0 -55 6 -94 14 -86 7 7 11 60 8 118 -5 116 17 116 37 0 10 -52 14 -22 15 101 2 181 -32 237 -55 92 l-11 -68 -15 75 c-8 42 -8 87 1 100 8 14 18 47 22 73 3 27 15 65 25 84 24 44 25 98 2 98 -10 0 -24 -28 -30 -61z"/> <path d="M2872 5845 c-6 -19 -17 -46 -24 -60 -6 -14 -3 -25 7 -25 16 0 65 84 65 111 0 25 -37 5 -48 -26z"/> <path d="M3090 5860 c-28 -42 -69 -164 -69 -200 0 -16 23 15 50 70 48 98 63 198 19 130z"/> <path d="M3151 5750 c-35 -85 -38 -110 -14 -110 21 0 73 156 57 172 -6 7 -26 -21 -43 -62z"/> <path d="M2966 5775 c-11 -14 -25 -46 -32 -71 -16 -69 31 -43 49 26 18 66 12 82 -17 45z"/> <path d="M2520 5664 c0 -20 -10 -46 -23 -59 -22 -22 -17 -108 20 -375 l17 -120 2 170 c1 115 -5 157 -17 130 -11 -26 -13 -2 -6 70 22 197 41 168 59 -87 13 -184 48 -291 48 -149 1 100 -65 456 -83 456 -10 0 -17 -16 -17 -36z"/> <path d="M2909 5571 c-17 -41 -26 -80 -20 -86 6 -6 25 23 42 64 17 41 26 80 20 86 -6 6 -25 -23 -42 -64z"/> <path d="M2974 5535 l-33 -85 40 47 c33 40 55 123 32 123 -4 0 -22 -38 -39 -85z"/> <path d="M2561 5128 c-2 -62 40 -170 61 -157 25 15 23 189 -2 189 -11 0 -21 -16 -21 -35 -2 -30 -4 -29 -19 5 -17 39 -17 39 -19 -2z"/> <path d="M2510 5037 c-14 -37 20 -117 51 -117 25 0 24 3 -10 83 -22 52 -31 60 -41 34z"/> <path d="M2814 6625 c-59 -74 -186 -252 -281 -395 -96 -143 -223 -331 -283 -417 -61 -87 -109 -173 -109 -190 1 -24 7 -20 19 10 30 74 61 76 48 3 -9 -56 -7 -60 13 -29 12 20 18 54 12 77 -12 46 197 345 228 325 10 -6 13 4 5 23 -9 25 -6 30 14 18 17 -10 21 -8 13 6 -16 26 228 406 251 392 8 -6 10 5 2 24 -10 27 -5 32 22 22 20 -8 29 -6 22 7 -7 11 18 62 55 114 141 195 121 201 -31 10z"/> <path d="M2658 6281 c-25 -44 -53 -81 -62 -81 -9 0 -14 -7 -12 -15 2 -8 -16 -54 -41 -102 -74 -141 -33 -118 52 30 111 191 130 229 119 240 -6 5 -31 -27 -56 -72z"/> <path d="M2398 6318 c-7 -40 -19 -81 -46 -156 -18 -49 -29 -92 -25 -96 4 -4 28 47 53 114 25 67 40 127 33 134 -7 7 -14 9 -15 4z"/> <path d="M2111 5989 c-19 -62 -29 -118 -23 -124 12 -12 20 8 49 134 30 130 12 123 -26 -10z"/> <path d="M2380 5901 c-35 -86 -16 -109 24 -30 19 37 27 72 18 78 -10 6 -28 -16 -42 -48z"/> <path d="M2160 5513 c-17 -12 -56 -72 -88 -133 -107 -201 -192 -322 -215 -308 -14 8 -18 5 -10 -7 14 -22 -138 -278 -270 -455 -71 -94 -90 -146 -32 -87 31 31 494 731 592 895 68 112 73 134 23 95z"/> <path d="M2065 4946 c-22 -53 -55 -154 -73 -226 -59 -241 -127 -438 -162 -473 -23 -23 -27 -38 -13 -43 13 -4 23 -16 23 -27 0 -11 -8 -14 -18 -8 -22 13 -83 -133 -80 -194 1 -48 8 -37 27 50 6 30 24 55 38 55 15 0 43 53 64 122 29 97 40 115 53 85 14 -30 15 -28 8 11 -10 51 57 328 138 571 59 176 56 221 -5 77z"/> <path d="M1956 4956 c-53 -81 -100 -181 -79 -168 25 15 126 195 116 206 -4 4 -21 -13 -37 -38z"/> <path d="M2981 4745 c-33 -27 -70 -134 -152 -435 -130 -476 -128 -459 -44 -443 74 15 175 114 175 173 0 56 215 60 232 5 27 -90 65 -136 134 -162 106 -41 119 -16 74 137 -20 72 -70 252 -109 400 -90 342 -177 433 -310 325z m144 -379 c34 -141 33 -146 -58 -146 -78 0 -77 -7 -33 165 40 154 49 152 91 -19z"/> <path d="M4545 4735 c-25 -27 -63 -126 -93 -245 -28 -110 -77 -293 -109 -406 -64 -227 -58 -252 56 -204 73 30 112 74 129 146 19 81 233 76 246 -5 10 -66 78 -136 148 -151 89 -20 97 -1 58 135 -20 69 -69 251 -109 405 -80 303 -121 370 -229 370 -31 0 -73 -19 -97 -45z m145 -343 c43 -163 41 -172 -37 -172 -84 0 -94 11 -72 77 9 29 27 92 39 140 27 105 32 101 70 -45z"/> <path d="M5168 4712 l-68 -68 0 -393 0 -394 45 14 c74 23 136 93 160 184 34 127 90 117 182 -32 78 -128 152 -174 240 -152 71 18 68 33 -36 179 l-89 124 60 44 c162 120 131 444 -50 530 -133 63 -364 44 -444 -36z m337 -157 c100 -76 42 -210 -100 -229 l-85 -11 0 132 0 133 76 0 c42 0 91 -11 109 -25z"/> <path d="M6135 4740 c-37 -28 -60 -80 -86 -185 -20 -80 -69 -264 -110 -410 -41 -146 -66 -271 -56 -277 64 -40 201 55 225 157 21 92 223 84 248 -10 19 -74 130 -160 193 -150 49 7 56 -36 -69 435 -126 478 -192 561 -345 440z m136 -353 c40 -169 40 -170 -46 -163 -55 4 -73 14 -67 36 4 17 16 71 26 120 37 179 45 180 87 7z"/> <path d="M6864 4766 c-294 -57 -239 -517 65 -542 120 -10 161 -40 141 -103 -13 -41 -41 -51 -127 -43 -123 11 -243 -75 -243 -174 l0 -48 193 12 c220 13 292 45 350 152 98 183 -40 400 -256 400 -93 0 -137 37 -117 99 13 43 26 48 117 41 118 -8 233 85 233 189 0 31 -227 41 -356 17z"/> <path d="M1888 4737 c-9 -15 -5 -18 12 -7 20 13 23 7 11 -22 -42 -101 -67 -208 -52 -218 18 -10 47 66 71 183 13 64 -15 107 -42 64z"/> <path d="M2052 4665 c-10 -36 -1 -183 13 -197 5 -4 8 46 8 112 0 127 -4 142 -21 85z"/> <path d="M1632 4407 c-20 -28 -41 -84 -45 -124 -4 -40 -12 -100 -18 -133 -5 -33 -12 -78 -16 -100 -3 -22 -17 -61 -31 -87 -14 -26 -22 -63 -17 -82 5 -19 -3 -51 -18 -71 -15 -21 -27 -52 -27 -69 0 -19 16 -7 40 29 22 33 36 71 31 84 -13 34 28 146 53 146 11 0 15 14 8 31 -6 17 -3 26 7 20 10 -7 18 4 17 24 -1 19 3 49 8 65 5 17 6 23 1 15 -5 -8 -17 -15 -27 -15 -24 0 29 104 71 139 17 14 31 36 31 48 0 13 -22 -4 -49 -37 -27 -33 -50 -49 -50 -36 -1 13 8 29 19 36 11 7 20 21 20 32 0 11 -10 14 -23 6 -15 -9 -18 -5 -9 9 8 13 24 18 36 11 12 -8 17 -2 11 14 -5 15 4 44 21 63 16 19 22 35 12 34 -10 0 -35 -24 -56 -52z"/> <path d="M1846 4432 c0 -12 -6 -53 -14 -92 -14 -68 -13 -68 27 17 49 104 48 96 14 96 -14 0 -26 -9 -27 -21z"/> <path d="M1494 3704 c-32 -59 -46 -105 -35 -122 21 -34 49 7 29 43 -10 19 -8 19 11 2 19 -17 19 -33 2 -65 -12 -23 -14 -42 -4 -42 27 0 44 82 24 118 -11 19 -7 52 12 88 51 99 16 79 -39 -22z"/> <path d="M1682 3658 c-43 -40 -91 -136 -76 -151 4 -4 37 34 73 84 72 100 73 132 3 67z"/> <path d="M4124 3569 c-56 -40 -58 -135 -4 -189 90 -90 280 -20 280 103 0 101 -176 156 -276 86z m176 -49 c54 -54 23 -120 -57 -120 -95 0 -142 95 -68 138 52 31 81 26 125 -18z"/> <path d="M4540 3470 c0 -118 4 -130 41 -130 36 0 39 9 28 69 -21 110 6 115 94 20 115 -125 137 -118 137 41 0 111 -5 130 -36 130 -29 0 -34 -14 -28 -85 l8 -85 -88 85 c-128 124 -156 116 -156 -45z"/> <path d="M5021 3547 c-101 -129 130 -293 248 -176 64 65 40 129 -49 129 -58 0 -80 -8 -80 -30 0 -19 19 -30 54 -30 38 0 48 -6 33 -21 -45 -45 -156 -14 -163 45 -8 66 47 101 134 83 49 -9 62 -5 62 21 0 60 -188 44 -239 -21z"/> <path d="M1638 3485 c-52 -69 -119 -262 -71 -203 44 54 134 201 116 190 -32 -20 -29 1 9 59 55 84 20 54 -54 -46z"/> <path d="M1600 3276 c-27 -45 -38 -96 -36 -170 3 -113 21 -126 30 -20 8 106 21 167 45 212 35 66 5 49 -39 -22z"/> </g> </svg> 