<svg width="117" height="115" viewBox="0 0 117 115" fill="none" xmlns="http://www.w3.org/2000/svg">
<path d="M62.5779 0.436058C60.7608 0.67466 58.4482 1.24364 57.4387 1.72085C56.4292 2.1797 54.7407 2.8588 53.6945 3.22589C52.6483 3.61133 50.4091 4.73093 48.7021 5.72206C47.0135 6.73154 44.3889 7.90621 42.9022 8.34671C41.4155 8.78721 39.3598 9.3929 38.3504 9.70492C34.4593 10.8796 29.8157 13.4125 28.5492 15.0643C27.8885 15.927 26.0714 18.1295 24.5297 19.9282C17.8671 27.7471 14.6735 32.7211 14.6735 35.3274C14.6735 37.1995 13.1684 42.8342 11.5349 47.0924C9.3324 52.8005 8.43305 55.6454 8.17609 57.646C7.95584 59.4631 8.41469 59.9954 9.13051 58.7473C10.2868 56.765 8.92861 62.5466 6.87294 68.3832C5.88182 71.1914 3.71602 75.2661 1.62365 78.2394C0.760999 79.4875 0.926186 80.1666 1.91731 79.4508C4.00969 77.9458 4.13817 77.9825 3.11033 79.7261C2.04579 81.5432 2.24769 81.8001 4.22994 81.0476C5.09259 80.7173 5.18436 80.7356 4.94575 81.3229C4.79892 81.6717 4.39513 82.7913 4.0464 83.8008C3.67931 84.8102 2.87173 86.6824 2.21098 87.9672C1.29327 89.8026 0.889478 91.3994 1.58694 90.5551C3.51413 88.1691 6.23055 82.0755 6.23055 80.1116C6.23055 79.8179 6.41409 79.616 6.63434 79.6711C6.87294 79.7261 7.14825 79.5242 7.24003 79.2489C7.35015 78.9369 7.25838 78.8451 7.01977 78.992C6.41409 79.359 6.50586 78.3863 7.1299 77.542C7.66217 76.8445 7.68053 76.8445 7.68053 77.6521C7.71723 79.5609 8.96532 77.9274 9.69949 75.0275C10.2318 72.9718 11.3514 67.8693 11.4248 67.282C11.4431 67.0801 11.59 66.5662 11.7552 66.144C11.902 65.7219 12.1406 64.7491 12.2691 63.9599C12.3976 63.189 12.6912 62.2896 12.9482 61.9776C13.1868 61.6656 13.7007 60.8213 14.0861 60.1239C16.1785 56.2695 25.8328 42.981 25.998 43.7519C26.0531 44.0823 25.7594 44.9266 25.3189 45.6241C24.4746 47.0006 24.5113 53.0208 25.374 53.5531C25.5942 53.6815 25.5208 53.8651 25.2088 53.9936C24.9151 54.1037 24.5664 54.9296 24.4195 55.884C23.7404 60.3992 19.2987 68.6218 14.4899 74.2566C13.5539 75.3395 13.5355 75.3395 13.7191 74.4401C13.8292 73.9262 14.0861 72.311 14.3064 70.8243C14.5083 69.356 14.9121 67.5757 15.2057 66.9149C16.1602 64.639 17.5367 56.0125 16.8393 56.71C16.6741 56.8752 16.3804 58.4169 16.1785 60.1422C15.9766 61.8675 15.426 64.3637 14.9304 65.6668C14.4165 67.025 13.8475 69.6497 13.6273 71.7421C13.352 74.1832 12.9115 76.092 12.3058 77.4135C11.8102 78.4964 11.1311 80.4603 10.8007 81.7818C9.88303 85.5077 8.0109 91.4544 7.60711 91.9684C7.40521 92.207 7.35015 92.6842 7.47863 92.9962C7.58875 93.3082 7.53369 93.4734 7.3685 93.3633C7.18496 93.2532 6.61598 93.6569 6.10207 94.2626C4.89069 95.7126 4.7255 95.2721 5.55144 92.7943C5.91852 91.6747 6.13877 91.2342 6.02865 91.7848C5.93688 92.3354 6.01029 92.7943 6.21219 92.7943C6.41409 92.7943 6.54257 91.7481 6.52421 90.3165C6.4508 87.3798 7.29509 82.6077 7.75394 83.3235C7.93748 83.5989 7.97419 83.3052 7.82736 82.6077C7.69888 81.9103 7.75394 81.4147 7.97419 81.4147C8.4514 81.4147 8.91026 83.6906 8.48811 83.9659C7.93748 84.3147 6.96471 88.2241 7.00142 89.9127C7.03813 91.8399 7.58875 90.5734 7.66217 88.3893C7.69888 87.4165 7.79065 87.233 8.06596 87.6551C8.32292 88.0589 8.41469 87.7836 8.43305 86.6273C8.43305 85.7647 8.67165 84.7001 8.96532 84.2413C9.5343 83.3603 8.8919 81.0476 8.08432 81.0476C7.86407 81.0476 7.68053 80.754 7.66217 80.4052C7.64382 80.0565 7.3318 81.0843 6.94636 82.6995C6.57927 84.3147 5.58815 87.5267 4.78056 89.8576C3.95463 92.1703 2.7616 95.6392 2.15592 97.5664C1.53187 99.4752 0.760999 101.347 0.448978 101.696C-0.835815 103.128 0.889478 103.862 2.44958 102.559L3.51413 101.659L3.36729 107.111C3.1654 113.975 3.67931 116.324 4.70715 113.351C5.22106 111.901 5.73498 111.956 6.39573 113.535C6.83623 114.581 7.49698 115.186 7.75394 114.728C7.7723 114.672 7.91913 112.158 8.08432 109.13C8.43305 102.394 8.72671 100.191 9.35076 99.1816C10.3602 97.6031 10.7273 94.8683 11.5166 82.883C11.7184 79.928 12.8564 76.9179 14.5083 75.1192C15.1874 74.3484 16.3621 72.8066 17.0962 71.7053C19.0601 68.7503 18.9867 69.3927 16.7108 74.7521C16.1418 76.1104 15.6829 77.9458 15.6279 79.1571C15.5728 80.2951 15.2241 82.2957 14.8754 83.5989C14.5083 84.9387 14.3064 86.5722 14.4165 87.3615C14.5266 88.1323 14.4716 88.7564 14.3064 88.7564C14.1412 88.7564 13.8842 89.2336 13.7558 89.8393C13.6273 90.4266 13.2969 91.1057 13.0032 91.3443C12.7096 91.5829 12.471 92.0785 12.471 92.4272C12.471 93.5285 11.4982 95.5291 11.2412 94.9601C11.1311 94.6848 11.0577 94.9417 11.1128 95.5474C11.2779 97.8417 13.9393 95.474 13.9393 93.0146C13.9393 92.3905 14.1228 91.2342 14.3431 90.4266L14.7469 88.9766L15.426 89.876L16.0867 90.757L17.4266 89.6741C19.3171 88.0956 24.5847 75.5047 24.5847 72.5129C24.5847 71.9623 24.9885 69.9801 25.4841 68.1079C25.9796 66.2358 26.6404 63.5561 26.9524 62.1428C27.5214 59.6834 28.2923 58.3802 29.3935 58.1233C30.7517 57.7929 31.5593 57.4441 31.5593 57.1688C31.5593 56.4163 35.4504 53.241 35.8542 53.6632C35.9827 53.7733 36.3131 53.5898 36.6067 53.241C37.1023 52.6353 37.1206 52.6354 36.9187 53.2777C36.7903 53.6448 36.6985 54.0853 36.6985 54.2505C36.6985 54.691 33.6884 56.0859 33.2663 55.829C33.046 55.7005 32.9909 55.8473 33.1378 56.1961C33.2846 56.5999 33.1928 56.7283 32.8625 56.5999C32.5872 56.4897 32.2568 56.5815 32.1283 56.8018C31.9998 57.0037 32.0549 57.1872 32.2568 57.1872C32.4587 57.1872 32.5504 57.4258 32.422 57.7378C32.3118 58.0315 32.0732 58.1967 31.8713 58.0682C31.6878 57.9581 31.5593 57.9948 31.596 58.1783C31.7612 59.1694 31.4675 60.1422 30.8986 60.4542C30.3112 60.7663 30.2378 60.6745 30.3847 59.7017C30.5315 58.784 30.4397 58.6005 29.8891 58.7106C28.0537 59.0593 28.8062 62.9504 30.8619 63.813C32.2384 64.382 32.2751 64.327 31.9448 62.2346C31.4308 58.9492 33.3764 56.453 37.5611 54.9663C40.9016 53.81 43.306 54.2138 43.306 55.9391C43.306 56.2511 43.7281 56.9119 44.2421 57.4074C45.0129 58.1967 45.1231 58.5638 44.9212 59.6467C44.5724 61.4821 45.5085 61.0966 46.2427 59.1144C46.7382 57.7929 46.8667 57.6644 47.4357 58.0865C48.0047 58.5087 48.0781 59.3346 48.0781 65.7586C48.0781 69.7231 48.1699 72.9718 48.28 72.9718C49.9869 72.9718 52.116 70.549 52.116 68.6035C52.116 67.1719 53.7312 67.6307 54.8691 69.3927C56.9064 72.5496 58.5033 73.5041 60.1918 72.6047C60.9444 72.2009 60.9077 72.1275 59.2558 69.7965L57.5488 67.4105L58.6684 66.2909C61.4399 63.5928 60.8893 58.4536 57.6223 56.7467C56.264 56.0492 51.2901 55.8106 50.354 56.398C49.5831 56.8935 46.5363 55.1315 46.0224 53.9201C45.4534 52.5619 44.1686 51.6809 42.7187 51.6809H41.5623L42.3699 49.3867C44.0035 44.7798 48.1699 38.7412 48.7205 40.2279C48.8122 40.4849 48.7205 40.8887 48.5186 41.1456C47.6009 42.2469 47.5458 44.4494 48.4452 43.9722C50.2439 43.0178 52.3179 40.4665 53.1255 38.2824C54.4653 34.5748 56.1906 27.5268 55.9704 26.6458C55.7318 25.6914 57.2001 24.113 61.2013 21.0294L63.4956 19.2674L68.2126 19.2858C70.8006 19.3042 73.1499 19.1573 73.4436 18.9738C73.8106 18.7535 73.829 18.6618 73.4986 18.6434C73.2417 18.6434 73.0398 18.4599 73.0398 18.258C73.0398 18.0377 73.205 17.9643 73.4069 18.0928C73.6087 18.2213 73.7739 18.1478 73.7739 17.9459C73.7739 17.744 73.2784 17.6339 72.6727 17.7073C71.8651 17.8175 71.4246 17.6523 71.0208 17.0649C70.3784 16.1656 70.2866 16.496 70.874 17.5972C71.0759 18.001 71.4797 18.2396 71.7733 18.1295C72.0486 18.0377 72.3607 18.0744 72.4708 18.258C72.7278 18.6618 71.4062 18.9921 70.8556 18.6434C70.5987 18.4966 70.4151 18.2763 70.4335 18.1478C70.4885 17.5238 69.9746 15.67 69.681 15.4865C69.5158 15.3764 69.4791 14.8441 69.6075 14.3118C69.8278 13.4125 69.7911 13.3758 69.2405 13.8163C68.543 14.4036 68.3962 13.8897 69.0753 13.2106C69.8278 12.458 68.8 12.715 67.7354 13.5409C67.2031 13.9814 66.8361 14.5321 66.9278 14.7707C67.0196 15.0276 66.9462 15.4498 66.7626 15.7434C66.524 16.1289 66.4506 16.1472 66.4323 15.7802C66.4323 15.5048 66.2487 15.4131 66.0101 15.5599C65.7899 15.7067 65.9 15.2662 66.2854 14.6238C67.9924 11.6688 70.4335 11.3568 70.4518 14.0732C70.4702 16.0188 71.2961 16.7529 72.6543 16.0004C73.26 15.67 73.8474 15.5415 73.9575 15.7251C74.3429 16.3308 74.0676 19.1757 73.4986 20.5706C72.7278 22.4244 73.0948 22.6263 74.71 21.2864C79.684 17.1934 80.6017 9.75998 76.6555 5.53852C76.2334 5.11637 76.0132 4.56574 76.1416 4.3455C77.0043 2.95058 74.6733 1.35376 70.4518 0.472763C67.5152 -0.151283 67.1297 -0.151276 62.5779 0.436058ZM70.7455 3.15247C71.2961 3.20753 71.7917 3.70309 72.3056 4.76764L73.0398 6.30939L72.1588 7.24546C71.6816 7.75938 71.0392 8.67708 70.7271 9.28277C69.993 10.7327 68.855 11.7422 66.524 12.9903C64.3032 14.1833 62.376 16.0188 62.3026 17.0466C62.2475 17.6706 62.119 17.7073 61.3849 17.377C60.6874 17.0649 60.5589 16.7529 60.6323 15.7067C60.7058 14.8441 60.5956 14.4587 60.2836 14.5137C59.8431 14.6055 59.8248 13.6694 60.2469 12.9536C61.0361 11.6688 61.2197 9.74162 60.6874 8.18152L60.1368 6.56635L61.3482 5.44675C63.3488 3.62968 66.5975 2.84045 70.7455 3.15247ZM60.2102 4.12524C59.9716 4.41891 59.5127 4.54739 59.1824 4.41891C58.7969 4.27208 58.6868 4.3455 58.8703 4.62081C59.0355 4.91447 58.9254 4.96954 58.5583 4.84106C57.7874 4.54739 57.8425 4.36385 58.8153 3.97842C60.1551 3.42779 60.7241 3.5012 60.2102 4.12524ZM57.6223 4.87777C57.8792 5.17143 58.3014 5.42839 58.5767 5.42839C59.2374 5.42839 59.2191 5.7037 58.5767 6.36446C58.0077 6.93343 55.4748 6.65813 54.1166 5.8689C53.4375 5.48346 53.4559 5.44675 54.3185 5.42839C54.8324 5.41003 55.5482 5.17143 55.952 4.85941C56.833 4.19866 57.0533 4.19866 57.6223 4.87777ZM76.4904 6.27268C77.0777 7.08026 77.1144 7.31887 76.7106 7.81444C76.4537 8.12646 76.3619 8.49354 76.4904 8.64037C76.6372 8.78721 76.8758 8.67709 77.041 8.42013C77.2796 8.03469 77.3897 8.0714 77.5733 8.53025C77.7017 8.86063 77.665 9.04417 77.4815 8.93404C77.2979 8.82392 76.9492 8.98911 76.6923 9.30112C76.2701 9.81504 76.3435 9.85175 77.2979 9.6315C78.2891 9.39289 78.3074 9.41125 77.665 9.92517C77.2612 10.2372 77.0777 10.641 77.2429 10.8979C77.4448 11.2283 77.6283 11.2283 78.0321 10.9163C78.7112 10.3473 78.7479 11.3384 78.0872 12.458C77.7201 13.0821 77.7201 13.2656 78.0872 13.3941C78.4175 13.5226 78.3808 13.7245 77.9403 14.165C77.5549 14.5504 77.4815 14.8074 77.7568 14.8992C78.3808 15.1011 78.2707 15.7067 77.61 15.7067C77.2429 15.7067 77.0777 15.9453 77.1695 16.3491C77.2429 16.6979 76.9309 17.3403 76.4904 17.7624C76.0499 18.1845 75.591 18.882 75.4442 19.3225C75.0771 20.4972 74.4347 20.2953 74.7651 19.1023C75.3708 16.9181 74.3429 12.5682 73.3151 12.972C72.5626 13.2656 72.7461 7.26381 73.517 6.1442C73.8657 5.66699 74.141 5.04295 74.141 4.74929C74.141 4.05183 75.4809 4.93282 76.4904 6.27268ZM52.8502 6.56635C52.4464 6.84167 52.6116 6.87837 53.4926 6.71319C54.2451 6.56635 54.6856 6.62141 54.6856 6.86002C54.6856 7.08026 54.3919 7.26381 54.0432 7.26381C53.6945 7.26381 53.1622 7.429 52.8502 7.6309C52.116 8.08975 54.9426 7.70431 56.0071 7.20875C56.5944 6.91508 57.0533 7.00686 57.971 7.57584L59.1824 8.31L57.402 8.56696C56.0622 8.76885 55.7868 8.91569 56.3375 9.09923C56.7413 9.24606 57.3286 9.26441 57.6223 9.15429C58.0261 9.00745 58.0077 9.11758 57.5305 9.61314C57.0533 10.072 56.5761 10.2005 55.7868 10.0169C54.5938 9.75998 52.373 10.1087 52.6299 10.5125C52.74 10.696 55.1812 10.7328 57.2919 10.5859C57.4204 10.5676 57.8976 10.2372 58.3564 9.8334C59.3108 9.00745 60.1551 8.82392 59.3659 9.5948C58.4115 10.5676 56.3375 11.4119 55.0527 11.3568C53.566 11.3017 50.7761 12.458 51.859 12.6966C52.2261 12.7701 52.7584 12.6232 53.0521 12.3846C53.3457 12.146 54.2084 11.9074 54.9609 11.8524C55.7134 11.8156 56.7413 11.6505 57.2185 11.5036C57.9343 11.265 58.0628 11.3201 57.8792 11.8157C57.7507 12.146 57.8242 12.403 58.0811 12.403C58.3931 12.403 58.3931 12.5131 58.0628 12.8435C57.4204 13.4859 57.5305 14.5137 58.3381 15.3213C58.7602 15.7434 58.9071 16.1472 58.7052 16.2757C58.2463 16.551 57.2368 18.9187 57.0533 20.1117C56.9799 20.6073 57.0166 20.8276 57.1267 20.5706C57.2368 20.3136 57.5305 20.1117 57.7874 20.1117C58.0261 20.1117 58.54 19.7814 58.9071 19.3776C59.2741 18.9738 59.3843 18.6434 59.164 18.6434C58.9254 18.6434 58.852 18.3864 58.9805 18.0377C59.1457 17.6156 59.0722 17.5054 58.7786 17.689C58.3381 17.9643 58.1912 17.4687 58.595 17.0649C58.9071 16.7529 59.8064 17.9276 59.8064 18.6434C59.8248 19.4326 57.2552 21.8003 56.0622 22.0756C55.5115 22.2225 55.0527 22.4978 55.0527 22.718C55.0527 22.9199 54.9058 22.9933 54.7223 22.8832C54.5388 22.7731 54.8875 22.1674 55.4932 21.5617C56.1172 20.956 56.5027 20.332 56.3558 20.1852C56.209 20.0383 55.6033 20.4788 54.9976 21.1579C54.2451 22.0022 54.0065 22.5161 54.2634 22.7731C54.4837 22.9933 54.502 23.4706 54.3185 23.9661C54.135 24.425 54.0799 24.9022 54.19 24.9939C54.3002 25.1041 54.0432 25.361 53.6394 25.5813C52.9052 25.9851 51.859 28.4262 52.2628 28.83C52.3913 28.9401 52.4831 28.8483 52.4831 28.5914C52.4831 28.3528 52.8135 27.8021 53.2173 27.3616C53.621 26.9395 53.9514 26.7743 53.9514 26.9946C53.9514 27.2148 53.7679 27.5268 53.5476 27.6553C53.3274 27.7838 53.2356 28.2426 53.3457 28.6464C53.4742 29.1053 52.9603 30.4268 51.9692 32.1888C51.1065 33.7122 49.9319 35.933 49.3812 37.0894C48.3717 39.1634 47.8945 39.8241 48.3167 38.5577C48.4452 38.1906 48.1148 38.3925 47.5458 39.0165C46.1876 40.5583 46.9768 38.9248 48.6838 36.6672C50.0236 34.9052 50.3173 33.9508 49.216 34.9419C48.6654 35.4375 48.4819 35.4742 48.2983 35.0888C48.1882 34.8318 48.1699 34.9419 48.2616 35.3641C48.4635 36.1533 46.1142 39.6773 44.2788 41.3659C43.7465 41.8615 43.306 42.4671 43.306 42.7241C43.306 42.9627 43.1775 43.238 43.0123 43.2931C42.8655 43.3665 42.168 44.1374 41.4706 45C40.7731 45.8627 40.0206 46.4867 39.7453 46.3766C39.4883 46.2848 39.2681 46.4133 39.2681 46.6886C39.2681 46.9639 38.901 47.4411 38.4421 47.7348L37.6162 48.3038L38.6257 48.2487C39.1763 48.212 39.6352 48.0101 39.6352 47.7715C39.6352 47.5512 39.9105 47.2576 40.2408 47.1291C40.7364 46.9272 40.7548 46.9823 40.3877 47.4411C40.1491 47.7348 40.0573 48.1753 40.2041 48.4139C40.3877 48.7076 40.3326 48.7626 40.0022 48.5607C39.6352 48.3405 39.5801 48.4323 39.7636 48.9645C39.9839 49.6253 39.9839 49.6253 39.4883 49.0012C39.0478 48.4139 38.9561 48.4139 38.7542 48.9462C38.4238 49.8272 38.4788 50.286 38.901 50.0291C39.1029 49.9006 39.2681 49.974 39.2681 50.1943C39.2681 50.3961 39.0295 50.5797 38.7174 50.5797C38.4238 50.5797 38.1668 50.8183 38.1668 51.112C38.1668 51.4056 38.02 51.736 37.8364 51.8461C37.4694 52.0664 37.8915 49.8455 38.3504 49.1114C38.5339 48.8177 38.4605 48.7076 38.1485 48.8177C37.8915 48.8911 37.4694 49.6253 37.2308 50.4145L36.8086 51.8645L36.8453 50.3044C36.8637 49.2949 37.0472 48.7443 37.3592 48.7443C37.708 48.7443 37.7263 48.5607 37.451 48.0285C36.8453 46.9089 36.9554 46.6152 38.8643 44.5962C41.3421 41.9716 43.6914 38.7779 43.4345 38.3742C43.3243 38.1906 42.994 38.3374 42.7187 38.7229C42.4433 39.09 41.544 40.283 40.7181 41.4026C39.9105 42.5038 39.0662 43.3848 38.8459 43.3298C38.644 43.2564 38.5706 43.3665 38.6807 43.55C38.7909 43.7152 38.4605 44.2658 37.9282 44.7431C36.7352 45.8627 36.1479 47.2943 36.7352 47.6614C37.5428 48.1753 36.6434 48.7443 35.0466 48.7443C33.67 48.7443 33.4314 48.6158 33.2846 47.9183C33.1561 47.2025 33.1194 47.2209 33.0827 48.0835C33.046 48.6158 33.1928 49.1664 33.3947 49.2949C34.5511 50.0107 32.4587 53.8834 30.9169 53.8834C30.6049 53.8834 30.5315 54.067 30.6967 54.3423C30.8435 54.6176 30.6783 54.5625 30.2929 54.2505C29.5587 53.6632 29.7423 55.0765 30.4948 55.884C30.6783 56.0676 30.8252 56.398 30.8252 56.6182C30.8252 56.8385 30.66 56.7467 30.4581 56.453C30.2011 56.0492 30.1093 56.0309 30.091 56.3796C30.091 56.6549 29.9258 56.765 29.7239 56.6366C29.5036 56.5081 29.4486 56.2328 29.5587 56.0492C29.8707 55.5537 29.0264 54.6176 28.2739 54.6176C27.7967 54.6176 27.6315 54.948 27.5948 55.9207C27.5581 56.6366 27.3562 57.4992 27.136 57.8479C26.7505 58.4353 26.7505 58.4353 26.9341 57.8296C27.0625 57.4258 26.9341 57.1872 26.5853 57.1872C26.2917 57.1872 26.0531 57.3707 26.0531 57.6093C26.0531 57.8479 25.9613 57.9397 25.8328 57.8296C25.5208 57.5176 26.4018 56.0309 26.7689 56.2695C26.9524 56.3613 27.0442 56.0309 26.9891 55.4986C26.8606 54.3606 28.0353 52.9841 28.8613 53.2961C29.2834 53.4613 29.265 53.2777 28.7328 52.3967C28.2923 51.6442 28.2005 51.2037 28.4758 51.0202C28.6961 50.8734 28.8613 49.9189 28.8429 48.8727C28.8062 47.2943 28.7144 47.0373 28.2923 47.3861C27.8701 47.7531 27.8334 47.5696 28.072 46.3582C28.2189 45.5506 28.3657 43.7886 28.384 42.4304C28.4024 41.0539 28.5676 40.0077 28.7695 40.0444C28.9714 40.0811 29.1549 39.8241 29.1549 39.4754C29.1733 39.1267 29.3201 38.8514 29.5037 38.8514C29.6688 38.8697 30.1277 38.1906 30.4948 37.3647C30.8802 36.5204 31.3207 35.933 31.5043 36.0432C31.6878 36.1533 31.9448 35.7495 32.0549 35.1255C32.1834 34.5198 32.4403 34.0976 32.6055 34.2078C32.789 34.3362 33.1745 34.1343 33.4498 33.7856C33.8903 33.1983 33.8903 33.1983 33.303 33.6388C32.3853 34.3729 32.5137 33.7856 33.5599 32.5559C34.1105 31.8951 34.496 31.6749 34.6061 31.9502C34.6795 32.2071 34.6979 32.0603 34.6245 31.6198C34.5694 31.1977 34.7897 30.4451 35.1384 29.9679C35.7991 29.0869 36.4782 27.949 37.2675 26.4256C37.5244 25.93 37.8181 25.7281 37.9649 25.9484C38.0934 26.1503 37.7814 26.9946 37.2675 27.8021C36.7536 28.6097 36.3314 29.5274 36.3314 29.8578C36.3314 30.1882 36.1479 30.3167 35.9276 30.1882C35.6523 30.0046 35.5972 30.1882 35.7624 30.7021C35.9093 31.161 35.8542 31.4913 35.6339 31.4913C35.4321 31.4913 35.3403 31.7299 35.4688 32.042C35.5789 32.3356 35.4137 33.7856 35.1017 35.2539C34.7897 36.7223 34.4409 38.3191 34.3492 38.833C34.2574 39.3286 34.239 38.5577 34.3124 37.0894C34.3859 35.6394 34.2941 34.3546 34.1105 34.2261C33.7251 33.9875 33.6517 34.7217 33.7435 37.9153C33.7802 39.1267 33.7985 41.6412 33.7985 43.5133C33.7985 46.7253 34.3124 48.4322 34.4226 45.5873C34.4593 44.8532 34.6245 44.0639 34.808 43.8437C35.3403 43.1646 35.6523 41.4026 35.2302 41.4026C35.0283 41.4026 34.8631 41.8431 34.8631 42.3754C34.8631 42.926 34.7529 43.2564 34.6245 43.1279C34.3675 42.8709 35.065 37.8419 35.6156 36.0799C35.7991 35.4742 36.0194 34.1527 36.1112 33.1432C36.1846 32.1337 36.2763 31.1059 36.2947 30.8673C36.313 30.6103 36.5884 30.5002 36.882 30.6287C37.2124 30.7572 37.4327 30.6287 37.4327 30.335C37.4327 30.0597 37.6529 29.4173 37.9282 28.9034C38.3687 28.0407 38.4788 26.4256 38.1485 25.4345C37.9282 24.7737 38.5706 23.3971 38.9928 23.6541C39.213 23.7826 39.2681 23.7275 39.1396 23.5073C38.9928 23.287 39.0478 22.718 39.2314 22.2408C39.4149 21.782 39.8554 20.4054 40.2225 19.194C40.5712 17.9827 40.9383 17.2118 41.0117 17.4504C41.1035 17.7073 41.3237 17.8175 41.5256 17.689C41.7459 17.5605 41.7092 17.2852 41.4522 16.9548C41.2136 16.6795 41.1218 16.4225 41.2503 16.3858C41.3605 16.3675 41.6358 16.3124 41.8377 16.2574C42.0396 16.2023 42.3699 16.1472 42.5718 16.1105C42.7737 16.0922 42.9389 15.8903 42.9389 15.6884C42.9389 15.4681 42.737 15.4131 42.4801 15.5599C42.168 15.7251 42.1497 15.6884 42.3883 15.4498C42.994 14.8441 45.8205 13.8713 46.3711 14.0916C46.6465 14.1833 47.1237 14.0365 47.4357 13.7428C47.7294 13.4308 48.5369 12.8435 49.216 12.4397C49.8951 12.0175 50.2439 11.6688 49.9686 11.6688C49.4363 11.6688 47.3256 13.0454 46.9034 13.6511C46.7566 13.8713 46.5363 13.9264 46.4079 13.7795C46.261 13.6511 46.6281 13.1004 47.2154 12.5682C47.7844 12.0359 48.0597 11.7239 47.8028 11.8524C46.6648 12.4213 47.4907 11.3935 48.6654 10.7511C49.785 10.1454 49.8768 10.0169 49.3078 9.77834C48.5002 9.46632 49.6382 9.30112 51.6572 9.44796C52.3179 9.48466 52.8502 9.33784 52.8502 9.13594C52.8502 8.91569 52.3913 8.73215 51.8407 8.73215C51.0331 8.71379 50.9413 8.64037 51.3818 8.32835C51.7856 8.03468 51.547 7.99798 50.4641 8.16317C49.1426 8.36507 49.0692 8.32835 49.6565 7.85114C50.1521 7.46571 50.2072 7.30052 49.8401 7.15369C49.5831 7.06191 49.73 6.98849 50.1705 7.00685C50.611 7.02521 50.8863 7.17204 50.7761 7.33723C50.6844 7.50241 50.9597 7.6309 51.4002 7.6309C51.9325 7.6309 52.1344 7.46571 51.9875 7.09863C51.804 6.60306 52.2078 6.25433 53.0337 6.19927C53.2356 6.18092 53.1622 6.3461 52.8502 6.56635ZM47.711 8.71379C47.711 8.89733 47.3806 9.15429 46.9768 9.28277C46.573 9.41125 46.0408 9.72327 45.7655 9.99859C45.5085 10.2555 44.8845 10.5859 44.3889 10.7327C43.8933 10.8796 44.4072 10.4207 45.5085 9.70492C47.8762 8.19987 47.711 8.27329 47.711 8.71379ZM49.2528 9.11758C48.7755 9.30112 48.4819 9.59479 48.592 9.75998C48.6838 9.92516 48.28 10.3657 47.6743 10.7144C46.9034 11.1733 46.6281 11.5587 46.7933 11.9625C46.9218 12.2929 46.9034 12.4397 46.7566 12.3112C46.6097 12.1644 46.2794 12.3479 46.0041 12.7334C45.7471 13.1004 44.8294 13.596 43.9667 13.8163C42.2415 14.2568 40.6263 15.927 39.9288 18.001C39.3598 19.6896 38.9377 20.0567 38.3871 19.3042C38.0934 18.9004 37.6346 18.7535 37.139 18.882C36.3498 19.0839 36.3498 19.0839 36.9371 17.377C37.2491 16.4409 37.4327 15.5783 37.3225 15.4681C37.2124 15.358 36.9004 15.982 36.6434 16.8631C36.2029 18.3314 35.2669 19.8181 35.2118 19.1206C35.1934 18.9554 35.0283 19.1573 34.8264 19.5611C34.5878 20.075 34.551 19.763 34.6979 18.5149C34.8447 17.2852 34.7897 16.808 34.5327 16.9732C34.3124 17.1017 34.1289 17.4504 34.1289 17.7257C34.1289 18.001 33.9454 18.6985 33.7251 19.2674L33.303 20.2953L32.8625 19.2491C32.5504 18.5516 32.3302 18.3681 32.2017 18.6985C30.5131 22.9383 30.4948 23.0117 31.027 22.8098C31.3941 22.663 31.5043 22.7731 31.3574 23.1769C31.2289 23.4889 30.9169 23.6541 30.66 23.5623C30.091 23.3421 29.5954 24.3883 30.1093 24.7186C30.2929 24.8288 30.4581 24.7186 30.4581 24.48C30.4581 24.2231 30.5498 24.1313 30.6783 24.2414C30.7884 24.3699 30.715 24.7553 30.4948 25.1224C30.2011 25.6363 30.1093 25.673 30.091 25.2509C30.0726 24.7553 30.0359 24.7553 29.7055 25.2509C29.265 25.93 29.5404 23.9661 30.091 22.4978C30.2929 21.9655 30.4397 21.1763 30.4214 20.7358C30.403 20.2953 30.0726 20.9744 29.6688 22.2592C29.265 23.544 28.8429 24.4984 28.7328 24.3699C28.6043 24.2598 28.2923 24.4433 28.017 24.7921C27.4296 25.5262 27.6866 23.8376 28.329 22.5528C28.5309 22.1858 28.5859 21.782 28.4758 21.6718C28.2005 21.3965 27.8701 21.7269 27.7416 22.3693C27.6866 22.6446 27.5214 23.1585 27.3929 23.5073C27.2644 23.856 27.0442 24.4433 26.9341 24.7921C26.7689 25.2326 26.6404 25.2876 26.5303 24.9572C26.4385 24.7003 26.6037 23.8376 26.9341 23.0301C27.2461 22.2408 27.4296 21.5801 27.3379 21.5801C27.0442 21.5801 25.686 24.4617 25.686 25.0674C25.686 25.4161 25.5208 25.5629 25.2638 25.3977C25.0069 25.2326 24.9335 25.306 25.0986 25.5629C25.2455 25.8015 25.0986 26.3522 24.7866 26.7927C24.4746 27.2515 24.236 28.0407 24.2544 28.5363C24.2727 29.3989 24.3278 29.3622 24.8967 28.1509C25.2271 27.4351 25.7043 26.9028 25.9246 26.9762C26.1632 27.068 26.4752 26.7743 26.6037 26.3155C26.8056 25.7098 26.9341 25.6364 27.1727 26.0218C27.4296 26.4439 27.5948 26.3889 28.0537 25.8015C28.4942 25.2142 28.6043 25.1775 28.6043 25.6547C28.6594 27.949 31.9264 25.3977 31.9264 23.0668C31.9264 22.718 32.4403 21.8737 33.046 21.1946C33.6701 20.4972 34.0738 20.2219 33.927 20.5706C33.5783 21.4883 34.3492 21.3782 35.0099 20.4054C35.3219 19.9649 35.689 19.7079 35.8175 19.8548C35.946 19.9833 36.3314 19.9465 36.6801 19.763C37.0105 19.5795 37.5061 19.5611 37.763 19.7263C38.7909 20.3503 30.2378 35.878 29.0264 35.621C28.7695 35.5476 28.6777 35.6761 28.8062 35.8963C29.0081 36.2084 26.879 39.0165 24.6765 41.3292C24.4195 41.6045 24.2176 41.9716 24.2176 42.1551C24.2176 44.4127 32.6973 32.5559 36.3681 25.1591C38.4972 20.901 39.8187 18.9554 38.8826 21.4883C36.9004 26.7927 32.2568 34.0426 23.0246 46.193C20.8588 49.0379 17.5551 53.6815 15.6829 56.4714C13.8108 59.2796 12.0855 61.5738 11.8286 61.5738C11.5716 61.5922 11.3697 61.8492 11.3697 62.1612C11.3697 62.5099 11.5349 62.6384 11.7919 62.4732C12.0855 62.2896 12.1589 62.4181 11.9938 62.8403C11.7368 63.4643 10.6906 67.7041 10.4153 69.1174C10.3419 69.5212 10.1767 70.3471 10.0666 70.9528C9.44253 74.1832 8.67165 77.0464 8.37798 77.23C7.91913 77.5053 8.2128 72.9901 8.6533 72.6598C8.83684 72.5313 8.98367 71.5035 8.98367 70.4022C8.98367 68.9706 9.24063 67.906 9.84632 66.7681C10.4153 65.7219 10.764 64.382 10.8374 62.9504C10.9476 61.0232 11.2229 60.2707 13.1501 57.0404C14.3431 55.003 16.3988 51.1854 17.7019 48.5607C19.0051 45.9361 20.5652 42.9627 21.1709 41.9532C22.8594 39.1083 26.6771 29.0502 26.2366 28.6097C26.1265 28.518 26.0347 28.6648 26.0347 28.9585C26.0164 29.2521 25.8695 29.1603 25.7043 28.7382C25.4657 28.1142 25.3923 28.1876 25.1537 29.2888C24.6581 31.6565 23.5202 35.1255 22.9512 36.0065C22.6392 36.4837 22.474 36.9609 22.5841 37.071C22.6759 37.1811 21.1158 40.4849 19.0968 44.4127C17.0779 48.3588 15.3526 51.424 15.2608 51.2588C15.169 51.0752 15.1507 51.1303 15.2057 51.3873C15.4443 52.4518 11.9387 58.4536 11.2963 58.0682C11.0577 57.903 10.9843 57.9764 11.1495 58.2334C11.2963 58.472 11.1862 58.9859 10.9109 59.3713C10.452 60.0321 10.3969 59.9403 10.4887 58.3986C10.5438 57.4809 10.8007 56.5631 11.076 56.398C11.333 56.2328 11.4064 56.0859 11.2045 56.0859C11.021 56.0859 11.1862 55.829 11.5716 55.517C11.9754 55.1866 12.0855 55.0397 11.8469 55.1499C11.59 55.2784 11.7552 54.7094 12.1773 53.9018C12.9665 52.4335 13.5722 51.993 13.5722 52.874C13.5906 53.186 13.6823 53.1676 13.9209 52.8005C14.3064 52.1949 14.0494 51.5708 13.5355 51.8828C13.352 51.993 13.3887 51.6809 13.6273 51.167C13.8475 50.6531 14.2146 50.3411 14.4165 50.4696C14.6184 50.598 14.6735 50.5063 14.5266 50.2677C14.2513 49.8272 16.4538 45.8076 16.9861 45.8076C17.1513 45.8076 17.1696 45.9911 17.0228 46.2297C16.8576 46.5051 16.931 46.5601 17.2247 46.3766C17.5551 46.1747 17.5551 45.9728 17.2798 45.6975C16.7658 45.1835 16.7475 44.5779 17.2431 44.8899C17.445 45.0184 17.6101 44.9449 17.6101 44.7247C17.6101 43.9355 20.2348 38.8881 20.7487 38.6862C21.0424 38.576 21.281 38.2824 21.281 38.0254C21.2626 37.7134 21.1709 37.6767 21.0057 37.9337C19.7576 39.7507 19.6475 38.5026 20.7854 35.4925C21.4645 33.6938 22.0151 31.8034 22.0151 31.2711C22.0151 30.7572 22.5107 29.6192 23.1164 28.7382C24.3461 26.9395 24.4746 26.5357 23.667 26.8477C22.7126 27.2148 24.7132 23.8009 26.8056 21.4699C27.8518 20.2953 28.9163 19.4143 29.1733 19.5061C29.4302 19.5978 29.9625 19.2307 30.3847 18.6618C30.9169 17.9276 31.4125 17.6706 32.0732 17.744C32.7523 17.8175 33.0644 17.6339 33.2479 17.0466C33.4865 16.239 33.9087 15.6884 35.7441 13.8346C37.0105 12.5498 37.2858 12.6416 36.5149 14.0916C36.2213 14.6789 35.9827 15.3947 35.9827 15.7067C35.9827 16.0004 36.3681 15.5232 36.8086 14.6238C37.5978 13.0087 38.9744 11.8891 38.3504 13.3574C37.9282 14.3852 37.8181 16.1105 38.2219 15.8536C38.4054 15.7434 38.5156 15.4498 38.4788 15.2112C38.3504 14.3485 39.0111 12.7334 39.6535 12.3846C40.975 11.6872 41.0484 12.0726 39.9288 13.8713C39.3048 14.8808 38.8826 15.7985 38.9928 15.9086C39.1029 16.0188 39.7636 15.0643 40.4978 13.7795C41.7092 11.577 41.8744 11.4302 43.0674 11.4486C44.2604 11.4669 44.3155 11.522 43.7281 12.0726C43.3978 12.403 43.0674 12.5315 43.0123 12.3663C42.8839 12.0726 40.7364 14.3302 40.7364 14.7523C40.7364 14.8624 40.9016 14.9726 41.1035 14.9726C41.3054 14.9726 41.4706 14.7156 41.4706 14.4219C41.4706 14.1099 41.856 13.7061 42.3332 13.5226C42.7921 13.3391 43.618 12.6966 44.1319 12.0726C45.0864 10.9346 45.7838 10.5309 45.2882 11.3935C45.1414 11.6505 45.5085 11.4302 46.0958 10.8979C47.6559 9.50302 48.904 8.73215 49.5281 8.7505C49.8584 8.76886 49.73 8.91569 49.2528 9.11758ZM71.9385 10.1638C71.9385 10.5492 72.1221 10.9346 72.3423 11.0081C72.5809 11.0815 72.691 11.4669 72.6176 11.834C72.5075 12.4764 72.4157 12.458 71.4797 11.5954C70.8189 10.9897 70.5436 10.4391 70.6904 10.0536C71.0025 9.22771 71.9385 9.31948 71.9385 10.1638ZM73.0948 15.358C71.4062 16.7346 70.7639 16.2757 72.0119 14.5871C72.7461 13.596 72.8746 13.5409 73.3885 14.0732C73.9024 14.6055 73.8841 14.7156 73.0948 15.358ZM64.9089 15.0643C63.7158 16.0738 63 17.4137 63.2753 18.1295C63.3855 18.4048 63.2937 18.6434 63.0918 18.6434C62.8899 18.6434 62.8165 18.8086 62.945 19.0105C63.0735 19.2124 62.9817 19.3776 62.7431 19.3776C62.5045 19.3776 62.4127 19.1206 62.5412 18.7902C62.6697 18.4782 62.7614 17.8358 62.7614 17.377C62.7614 16.5327 64.762 14.2384 65.4962 14.2384C65.6981 14.2384 65.4411 14.6055 64.9089 15.0643ZM68.5981 15.3397C69.0019 16.1656 68.9835 16.1839 68.5063 15.5966C68.0291 14.9909 67.974 15.046 67.7354 16.239C67.6069 16.9548 67.35 17.5422 67.1481 17.5422C66.6525 17.5422 66.7076 16.9915 67.35 15.4498C67.9557 13.9998 67.974 13.9998 68.5981 15.3397ZM32.9726 16.0371C32.477 16.808 31.596 17.3219 31.284 17.0282C31.1922 16.9181 31.5593 16.4225 32.1283 15.9086C33.2846 14.8441 33.6701 14.8991 32.9726 16.0371ZM21.3911 26.7192C20.8772 27.7287 20.3082 28.5547 20.1247 28.5547C19.9595 28.5547 20.3266 27.7287 20.9506 26.7192C21.5746 25.7098 22.1436 24.8838 22.217 24.8838C22.2905 24.8838 21.9234 25.7098 21.3911 26.7192ZM22.9696 26.2971C22.6575 26.6642 22.4556 27.2699 22.5291 27.6737C22.6392 28.1876 22.474 28.3895 21.9784 28.3895C21.593 28.3895 21.281 28.3895 21.281 28.3711C21.281 28.2794 22.6392 25.7098 22.9145 25.2693C23.1715 24.8655 23.2816 24.8471 23.4101 25.1958C23.4835 25.4528 23.2999 25.9484 22.9696 26.2971ZM22.0151 28.7566C22.0151 28.7933 21.7949 29.2705 21.5012 29.8027L21.0057 30.7939L20.8221 29.8578C20.7304 29.3622 20.712 28.885 20.7854 28.8116C20.9322 28.6648 22.0151 28.6281 22.0151 28.7566ZM20.1797 29.7477C20.1614 31.0508 19.6107 31.7299 19.1702 30.9407C18.8399 30.3534 18.8032 30.3534 18.5829 30.9224C18.4361 31.3261 18.4911 31.4363 18.7665 31.2711C19.0234 31.1059 19.0968 31.1793 18.9316 31.4363C18.7848 31.6749 18.4177 31.8584 18.0873 31.8584C17.5734 31.8584 17.5734 31.7666 18.069 31.0325C18.3627 30.5736 18.8399 30.2065 19.1152 30.2065C19.4088 30.1882 19.574 29.9129 19.519 29.5641C19.4639 29.2154 19.5924 28.9217 19.7943 28.9217C20.0145 28.9217 20.1797 29.2888 20.1797 29.7477ZM20.9873 33.4002C20.5652 34.4647 19.6842 36.8875 19.0051 38.7779L17.7937 42.2285L17.6836 40.5032C17.6101 39.4203 17.7753 38.4659 18.1057 37.952C18.3994 37.4931 18.5278 36.9242 18.3627 36.6672C17.9772 36.0432 17.3165 38.8147 17.1329 41.8431C17.0044 43.8253 16.7475 44.6329 15.8298 46.0278L14.6735 47.7715V46.5968C14.6735 45.9728 14.4899 45.4405 14.2697 45.4405C14.0127 45.4405 13.9577 45.9728 14.0861 46.9639C14.288 48.3405 14.0494 48.9462 11.902 53.0024C9.16722 58.1783 8.12103 59.353 9.16721 56.0859C9.42417 55.2967 9.47924 55.26 9.55265 55.9024C9.58936 56.3062 9.75455 55.5353 9.91974 54.1955C10.0666 52.8556 10.4704 51.2955 10.7824 50.7082L11.3697 49.662L11.1495 50.7632C10.5438 53.81 10.5438 53.9936 10.9476 53.7366C11.1862 53.5898 11.3697 53.1126 11.3697 52.6721C11.3881 51.3873 11.7919 50.1942 12.1406 50.4145C12.7279 50.7816 12.4893 50.1208 11.8653 49.662C11.3881 49.3132 11.3514 49.0746 11.6817 48.524C12.0488 47.8816 12.0855 47.9 12.1222 48.7443C12.1589 49.5886 12.1773 49.5886 12.4526 48.9278C12.6178 48.524 12.6178 48.0285 12.4526 47.8082C12.2874 47.6063 12.471 46.7253 12.8564 45.8443C13.2602 44.9817 13.5722 43.9538 13.5722 43.5867C13.5722 43.2197 13.7558 42.7975 13.976 42.669C14.2697 42.4855 14.3064 42.7608 14.1412 43.55C13.976 44.2475 14.0311 44.7064 14.2513 44.7064C14.6184 44.7064 15.169 42.8893 14.9671 42.2836C14.8387 41.8798 15.738 39.5855 16.3253 38.833C16.5456 38.521 17.2063 37.0894 17.7753 35.621C18.7297 33.1983 20.1797 31.1243 20.1797 32.1704C20.1797 32.8863 20.8588 32.6476 21.0974 31.8217C21.2443 31.4179 21.4278 31.161 21.5379 31.2527C21.6481 31.3629 21.3911 32.3356 20.9873 33.4002ZM52.6483 32.9964C52.5198 33.4369 52.373 33.9875 52.3363 34.2261C52.2445 34.9052 49.4914 38.521 49.2528 38.3007C49.1426 38.1723 49.3996 37.64 49.8217 37.0894C50.2622 36.5387 51.0515 35.2172 51.6021 34.1527C52.6483 32.1337 53.0704 31.6749 52.6483 32.9964ZM51.7489 37.3096C51.7489 37.7685 49.9686 39.7507 49.7483 39.5305C49.6565 39.4203 50.0053 38.8147 50.5559 38.1723C51.6388 36.9058 51.7489 36.8324 51.7489 37.3096ZM28.2556 41.4026C28.2556 41.6045 28.072 41.7697 27.8518 41.7697C27.6315 41.7697 27.5398 42.0266 27.6682 42.357C27.7967 42.669 27.6499 43.2747 27.3562 43.6969C26.5303 44.8715 26.1999 43.6051 26.9524 42.1735C27.5214 41.0722 28.2556 40.6501 28.2556 41.4026ZM26.3467 46.193C26.3284 46.7987 26.4936 47.4962 26.7322 47.7348C27.0442 48.0468 27.1543 47.9917 27.1543 47.4778C27.1543 47.0924 27.2644 46.9089 27.4113 47.0557C27.76 47.3861 27.8334 52.0664 27.503 51.8461C27.3562 51.7727 27.0442 50.9101 26.7872 49.9373C26.3651 48.3772 26.2917 48.2854 26.0714 49.1114C25.9246 49.6069 25.9062 50.1025 26.0347 50.2126C27.0258 51.0936 27.4113 53.0208 26.7505 53.8467C26.3651 54.3239 26.0531 54.5258 26.0531 54.3056C26.0531 54.1037 26.2183 53.8284 26.4201 53.6999C26.622 53.5714 26.7872 53.3145 26.7872 53.1126C26.7872 52.9107 26.6037 52.8556 26.3834 52.9841C26.1081 53.1676 26.0531 52.9841 26.2183 52.4518C26.3834 51.9562 26.255 51.479 25.8879 51.0936C25.5024 50.7082 25.3923 50.2126 25.5759 49.5519C25.7043 49.0012 25.8512 48.0652 25.8695 47.4595C25.9613 45.6975 26.0347 45.0734 26.2183 45.0734C26.2917 45.0734 26.3651 45.569 26.3467 46.193ZM36.6618 49.5886C36.6434 49.8272 36.4782 50.4329 36.2947 50.9468C36.0194 51.736 36.001 51.6809 36.1479 50.6348C36.3131 49.5518 36.258 49.4601 35.7808 49.8455C35.4688 50.1025 35.2302 50.7816 35.2302 51.3506C35.2302 51.9379 35.0833 52.4151 34.8814 52.4151C34.239 52.4151 34.0922 51.7176 34.5694 50.9101C34.9548 50.286 34.9548 50.0841 34.5878 49.9556C33.7068 49.6253 34.1473 49.2215 35.4137 49.1848C36.2213 49.1481 36.6801 49.2949 36.6618 49.5886ZM40.5712 52.8005C40.6997 53.0208 41.0301 53.1126 41.3054 53.0024C41.5991 52.8923 42.0763 53.0575 42.3699 53.3695C42.682 53.6815 43.0857 53.8467 43.2509 53.7366C43.4345 53.6265 43.875 53.8651 44.2604 54.2872C44.7743 54.8746 44.8294 55.0948 44.4623 55.3151C44.0952 55.5537 44.1319 55.6638 44.6091 55.8657C44.9579 55.9942 45.4534 55.9024 45.7471 55.6821C46.4629 55.0765 46.3528 55.7556 45.5452 56.7834L44.8661 57.6828L44.3338 56.5999C44.0402 56.0125 43.8566 55.26 43.93 54.948C44.0769 54.3423 42.7737 53.8834 40.8832 53.8834C40.2225 53.8834 40.0757 53.7366 40.2408 53.241C40.4611 52.6353 40.4427 52.6353 39.9655 53.241C39.4516 53.8834 37.0656 54.7828 37.0656 54.3239C37.0839 53.7366 37.708 53.1676 38.4421 53.0391C38.8826 52.9841 39.3598 52.8005 39.5067 52.6721C39.8738 52.305 40.2959 52.36 40.5712 52.8005ZM47.6192 56.3245C48.335 55.884 49.3812 57.0404 48.849 57.6828C48.2249 58.4353 46.6281 57.4258 46.6281 56.2695C46.6281 55.7189 46.7015 55.6638 46.9401 56.0492C47.1237 56.3245 47.4173 56.453 47.6192 56.3245ZM55.7868 60.4909C57.5672 62.2713 56.0071 64.5289 53.0154 64.5289C52.1527 64.5289 52.116 64.4187 52.116 62.1428V59.7568H53.5843C54.5571 59.7568 55.2913 59.9954 55.7868 60.4909ZM9.11215 66.0156C8.70836 67.5206 8.32292 69.5396 8.26786 70.5123C8.19444 71.4851 7.90078 72.5496 7.58875 72.8984C7.29509 73.2471 6.94636 73.8528 6.81788 74.2566C6.50586 75.2294 5.51473 76.3673 4.32171 77.1565L3.33058 77.7989L3.77108 76.8812C4.00969 76.3857 4.32171 76.0553 4.4869 76.1471C4.63373 76.2388 4.76221 76.0553 4.76221 75.7249C4.76221 75.3762 4.9274 75.2294 5.18436 75.3945C5.47802 75.5781 5.55144 75.3578 5.42296 74.6787C5.25777 73.8895 5.33119 73.7794 5.73498 74.1097C6.35902 74.642 6.39573 74.018 5.77169 73.3572C5.40461 72.9534 5.42296 72.8984 5.95523 73.0819C6.46915 73.2655 6.59763 73.1003 6.59763 72.2743C6.59763 71.1731 7.3685 70.2187 7.88242 70.6775C8.04761 70.8243 8.04761 70.7326 7.90078 70.4573C7.62546 69.9801 7.97419 68.2548 9.05709 64.7858C9.90138 62.051 9.95644 62.932 9.11215 66.0156ZM23.1531 65.5567C22.9512 65.9421 22.7126 66.8231 22.6208 67.5022C22.4006 69.2826 21.7398 71.9807 21.1341 73.6142C20.8405 74.3667 20.5101 75.4496 20.3816 76.0186C20.2531 76.6426 19.9962 76.9363 19.7392 76.7895C19.4823 76.6243 19.4272 76.6977 19.6107 76.973C19.8493 77.3768 18.6563 81.0109 17.9589 81.9653C17.812 82.1672 17.5918 82.8463 17.445 83.4704C17.188 84.6634 15.7747 85.0305 15.4994 83.9476C15.3893 83.5805 15.4443 83.5621 15.6646 83.8742C16.1969 84.6083 17.0412 83.764 17.1146 82.4425C17.188 80.6622 17.8671 78.111 19.4823 73.5224C19.7025 72.9167 19.9044 72.0908 19.9411 71.687C19.9962 71.2832 20.2164 70.9895 20.455 71.0446C20.6936 71.0813 20.8038 70.8978 20.6936 70.6225C20.5835 70.3471 20.6753 69.9984 20.8955 69.8699C21.1158 69.7231 21.281 69.9066 21.281 70.2554C21.281 70.6041 21.3727 70.7876 21.5012 70.6775C21.6114 70.549 21.593 70.0902 21.4645 69.6497C21.3177 69.2092 21.0974 68.9889 20.969 69.1908C20.4367 69.9617 19.4272 70.0535 19.9044 69.2826C20.1614 68.8972 20.4734 68.5668 20.6386 68.5668C20.7854 68.5668 20.9139 68.2731 20.9139 67.9244C20.9322 67.4288 20.9873 67.3921 21.2443 67.7776C21.4829 68.1446 21.6297 68.163 21.8132 67.851C21.9601 67.6124 21.7765 67.0617 21.4095 66.6212L20.7304 65.8137L21.6114 66.5478L22.474 67.282L22.217 66.401C22.0335 65.8687 22.0702 65.6301 22.3088 65.7586C22.5107 65.8871 22.7677 65.6301 22.8778 65.1896C22.9879 64.7491 23.1898 64.4738 23.3183 64.6023C23.4468 64.7308 23.3734 65.1529 23.1531 65.5567ZM17.6285 76.0553C17.2981 76.4591 17.2981 76.7895 17.5918 77.3584C17.8855 77.8907 17.8855 78.111 17.6101 78.111C17.3715 78.111 17.2981 78.2578 17.4082 78.4597C17.5184 78.6432 17.4633 78.9002 17.2614 79.0287C17.0228 79.1571 16.931 78.7166 17.0044 77.854C17.1329 76.3306 17.5918 75.0275 17.8855 75.3395C17.9956 75.4312 17.8855 75.7616 17.6285 76.0553ZM7.3318 94.4645C7.3318 94.7949 7.14825 94.9234 6.928 94.7949C6.65269 94.6114 6.59763 94.7949 6.76282 95.3272C7.03813 96.1531 6.59763 103.219 6.32232 102.43C6.23054 102.173 5.97359 102.082 5.73498 102.21C5.45967 102.357 5.47802 102.265 5.77169 101.953C6.02865 101.678 6.23055 101.201 6.21219 100.888C6.21219 100.448 6.08371 100.485 5.62486 101.054C5.07423 101.751 5.05588 101.696 5.29448 100.32C5.53309 98.943 5.51473 98.9062 4.98246 99.5853C3.77108 101.164 4.94575 96.7955 6.21219 95.0152C7.11155 93.7487 7.3318 93.6386 7.3318 94.4645Z" fill="#F24C4C"/>
<path d="M64.8355 4.56604C64.4133 5.00654 64.5785 6.05273 65.1659 6.54829C66.0102 7.24575 67.5152 5.74071 66.8177 4.89642C66.3222 4.30908 65.276 4.14389 64.8355 4.56604Z" fill="#F24C4C"/>
<path d="M66.4323 7.83235C66.4323 8.12602 66.1937 8.47475 65.8817 8.60322C65.588 8.71335 65.3311 8.95195 65.3311 9.1355C65.3311 9.30068 65.6064 9.33739 65.9367 9.20891C66.3589 9.04373 66.469 9.11714 66.2855 9.39245C66.1203 9.68612 66.2304 9.74118 66.6709 9.576C67.0747 9.42916 67.1481 9.28233 66.8728 9.19056C66.6342 9.09879 66.5424 8.84183 66.6893 8.60322C67.1114 7.96083 67.1481 7.26337 66.7627 7.26337C66.5791 7.26337 66.4323 7.52033 66.4323 7.83235Z" fill="#F24C4C"/>
<path d="M63.8077 9.42868C64.1931 9.66729 64.0463 9.83248 63.2571 10.1261C62.3761 10.4565 62.3394 10.5116 63.0001 10.5299C64.2298 10.585 64.9456 10.1996 64.7254 9.61223C64.6153 9.33691 64.2482 9.09831 63.9178 9.09831C63.4406 9.11666 63.4222 9.17172 63.8077 9.42868Z" fill="#F24C4C"/>
<path d="M49.6748 12.8983C49.0324 13.3388 47.6008 14.4767 46.4995 15.4311C45.2698 16.514 44.2786 17.1014 43.9483 16.9729C43.3242 16.7343 41.4705 18.4963 41.4705 19.3222C41.4705 19.6343 41.7641 19.4874 42.2413 18.9552C42.6451 18.4779 42.8837 18.2944 42.7553 18.5514C42.4432 19.1938 43.1223 19.1203 43.673 18.4596C44.0217 18.0558 44.0217 17.909 43.6913 17.909C43.4527 17.909 43.3793 17.7254 43.5078 17.5052C43.6913 17.2115 43.8565 17.2482 44.0951 17.5969C44.297 17.909 44.4989 17.964 44.6824 17.7254C44.8293 17.5235 45.5818 16.8811 46.3343 16.3305C47.1052 15.7615 48.1147 14.9356 48.5919 14.4951C49.0691 14.0546 49.8583 13.4122 50.3355 13.0818C50.8127 12.7514 51.1248 12.4027 51.0146 12.2926C50.9229 12.2008 50.3172 12.4761 49.6748 12.8983Z" fill="#F24C4C"/>
<path d="M55.2178 12.6961C54.1165 13.3018 53.933 13.3569 52.7032 13.4486C52.3178 13.4853 52.0976 13.6138 52.226 13.7423C52.3729 13.8708 52.2995 14.2012 52.0609 14.4765C51.4185 15.2473 52.2627 15.0638 53.1437 14.2195C53.5843 13.8157 53.9513 13.5771 53.9513 13.7056C53.9513 13.8341 54.557 13.5771 55.3095 13.1366C56.2089 12.6227 56.5026 12.5493 56.1722 12.9164C55.9152 13.2467 55.8602 13.5037 56.0621 13.5037C56.264 13.5037 56.6127 13.2834 56.8513 12.9898C57.512 12.2005 56.5026 12.017 55.2178 12.6961Z" fill="#F24C4C"/>
<path d="M54.6305 14.1283C54.3919 14.4036 54.3001 14.7156 54.4102 14.8258C54.6121 15.0093 57.2551 14.0365 57.2551 13.7612C57.2551 13.3758 54.9792 13.6878 54.6305 14.1283Z" fill="#F24C4C"/>
<path d="M46.0591 17.3404C43.8016 19.4511 43.618 19.708 44.5174 19.5979C45.068 19.5429 45.637 19.3593 45.7838 19.1941C45.9306 19.0289 45.8572 19.0106 45.6003 19.1574C44.7743 19.6346 45.1231 18.8087 46.1693 17.7992C47.2154 16.7897 47.968 16.4777 47.4908 17.2302C47.3256 17.5055 47.399 17.5606 47.6743 17.3771C47.9313 17.2302 48.0414 17.01 47.9496 16.9182C47.8395 16.8081 48.2066 16.3492 48.7388 15.872C49.4179 15.2663 49.5648 14.991 49.1793 14.991C48.8673 14.9727 47.4724 16.0372 46.0591 17.3404Z" fill="#F24C4C"/>
<path d="M52.8501 15.7802C52.4463 16.239 52.171 16.808 52.2812 17.0649C52.3729 17.3219 52.3362 17.5422 52.171 17.5422C52.0242 17.5422 51.4919 18.2029 50.9964 18.9921C50.5008 19.7997 49.9685 20.4605 49.8217 20.4605C49.4546 20.4788 49.473 21.5801 49.8217 21.5801C49.9869 21.5801 50.4274 20.9927 50.8312 20.2586C51.2166 19.5428 52.1527 18.2947 52.9236 17.5054C54.2451 16.1472 54.7223 14.9726 53.9697 14.9726C53.7678 14.9726 53.2723 15.3397 52.8501 15.7802Z" fill="#F24C4C"/>
<path d="M56.3374 15.2479C55.5115 15.8719 55.0159 17.1751 55.6032 17.1751C55.9153 17.1751 56.2823 17.432 56.3925 17.744C56.576 18.2029 56.7596 18.0928 57.2551 17.2852C58.0627 15.982 57.7874 15.4498 56.7779 16.3308L56.007 16.9915L56.6311 15.982C57.2551 15.0093 57.1083 14.6789 56.3374 15.2479Z" fill="#F24C4C"/>
<path d="M48.0414 17.6704C45.1781 20.4786 44.3155 21.635 44.7009 22.0204C44.9579 22.2773 45.2149 22.1122 45.5269 21.5248C45.7838 21.0476 46.0775 20.5704 46.206 20.4603C46.3345 20.3685 47.3256 19.3223 48.4268 18.166C50.7578 15.7433 50.4274 15.3028 48.0414 17.6704Z" fill="#F24C4C"/>
<path d="M49.3627 18.1846C47.5824 19.9649 46.5362 21.525 46.7014 22.2041C46.8299 22.718 46.9583 22.6263 47.3071 21.7636C47.5457 21.1579 48.2064 20.1668 48.757 19.5611C50.8678 17.2485 51.3083 16.2574 49.3627 18.1846Z" fill="#F24C4C"/>
<path d="M53.7681 20.129C53.1624 20.7164 52.8503 21.2119 53.0522 21.2119C53.6579 21.2119 55.8054 19.5233 55.5301 19.248C55.163 18.8626 54.9427 18.9727 53.7681 20.129Z" fill="#F24C4C"/>
<path d="M51.547 20.3868C50.8312 20.9008 49.5464 22.9748 49.5464 23.6355C49.5464 24.021 49.9869 23.5988 50.6476 22.571C51.235 21.6166 51.8957 20.8457 52.116 20.8457C52.3179 20.8457 52.4831 20.6805 52.4831 20.4786C52.4831 20.0565 52.0976 20.0198 51.547 20.3868Z" fill="#F24C4C"/>
<path d="M39.7452 23.8C39.3414 26.3329 39.6901 26.2778 40.3141 23.7083C40.8281 21.6526 40.8281 21.5792 40.4243 21.5792C40.2407 21.5792 39.9471 22.5703 39.7452 23.8Z" fill="#F24C4C"/>
<path d="M42.0395 23.379C41.7825 24.1683 41.4705 26.0037 41.3236 27.6372C41.1952 28.8302 39.8737 31.6751 39.0477 32.5011C38.4237 33.1251 38.0566 34.5017 38.2585 35.401C38.3503 35.8599 38.5705 35.5662 38.9009 34.5017C39.2496 33.4004 39.4882 33.07 39.7268 33.4004C39.9287 33.7124 39.9654 33.584 39.8186 33.0517C39.6901 32.5928 39.7268 32.2258 39.892 32.2258C40.4794 32.2258 41.599 29.8764 41.8926 28.0594C42.2046 26.0771 42.4616 25.5999 42.8837 26.2606C43.0673 26.5543 43.3426 26.2056 43.6546 25.3429C43.9299 24.5904 44.3154 23.8562 44.4989 23.7278C44.7008 23.5993 44.7559 23.324 44.6274 23.1037C44.2787 22.5531 43.2325 23.0303 43.4527 23.6543C43.5629 23.9297 43.4711 24.1499 43.2692 24.1499C43.0673 24.1499 42.9755 24.4436 43.104 24.8107C43.2508 25.2695 43.104 25.4714 42.5717 25.5265C41.7825 25.5815 41.6357 25.2512 42.1679 24.6822C42.7002 24.1132 43.0306 22.6816 42.6268 22.6816C42.4249 22.6816 42.1496 22.9936 42.0395 23.379Z" fill="#F24C4C"/>
<path d="M51.07 23.6182C50.8314 24.1505 50.7396 24.7378 50.8681 24.9581C51.07 25.2518 52.1162 23.453 52.1162 22.829C52.1162 22.3151 51.4187 22.8474 51.07 23.6182Z" fill="#F24C4C"/>
<path d="M45.1965 26.0593C44.7193 27.0321 44.5725 27.6929 44.7928 27.8397C44.9946 27.9682 45.0497 28.372 44.9029 28.7574C44.6643 29.3631 44.701 29.3815 45.1965 28.9226C45.5086 28.6289 45.6921 28.0967 45.6003 27.7479C45.5086 27.3809 45.6921 26.6834 46.0225 26.1878C46.6832 25.1783 46.775 24.5176 46.2794 24.5176C46.0959 24.5176 45.6003 25.2151 45.1965 26.0593Z" fill="#F24C4C"/>
<path d="M47.8395 26.2616C47.2889 26.6287 45.1415 30.6299 45.1415 31.309C45.1415 32.3001 45.8206 31.878 46.0592 30.7584C46.1877 30.1527 46.8668 28.8312 47.5642 27.8217C48.7389 26.0964 48.8307 25.6376 47.8395 26.2616Z" fill="#F24C4C"/>
<path d="M49.271 26.976C48.8122 27.5083 48.5185 28.0039 48.5919 28.0956C48.8672 28.371 50.9963 26.6273 50.7944 26.2969C50.5007 25.8014 50.152 25.9666 49.271 26.976Z" fill="#F24C4C"/>
<path d="M50.7211 27.8024C49.9686 28.8303 49.9686 28.867 50.6293 28.8303C51.0147 28.7936 51.3084 28.6834 51.2901 28.5733C51.2717 28.4632 51.4002 28.0778 51.547 27.7107C52.0242 26.6094 51.5654 26.6645 50.7211 27.8024Z" fill="#F24C4C"/>
<path d="M43.3058 28.151C43.3058 28.5181 43.0488 29.4541 42.7368 30.2066C42.4248 30.9592 42.2412 31.6566 42.3514 31.7667C42.4615 31.8769 42.6634 31.675 42.7919 31.3262C42.9571 30.8857 43.1222 30.8307 43.3058 31.1243C43.4526 31.363 43.5627 31.0876 43.5627 30.5187C43.5444 29.9497 43.6729 29.0136 43.8197 28.463C44.0216 27.8022 43.9849 27.4535 43.7096 27.4535C43.4893 27.4535 43.3058 27.7655 43.3058 28.151Z" fill="#F24C4C"/>
<path d="M49.2712 29.5271C48.7756 29.729 47.7111 31.5644 47.7111 32.2068C47.7111 33.0328 48.2984 32.5005 49.0876 30.922C49.5465 30.0227 49.8769 29.3069 49.8218 29.3252C49.7667 29.3252 49.5281 29.4353 49.2712 29.5271Z" fill="#F24C4C"/>
<path d="M50.3358 31.6936C49.8219 32.8132 49.8035 33.3271 50.244 33.3271C50.6111 33.3271 51.1984 31.1981 50.9231 30.9044C50.8313 30.831 50.5744 31.1797 50.3358 31.6936Z" fill="#F24C4C"/>
<path d="M41.1954 33.2715C40.241 34.4278 40.1492 34.85 40.9568 34.5563C41.4707 34.3544 42.3884 32.6474 42.1131 32.3905C42.058 32.3354 41.6543 32.7209 41.1954 33.2715Z" fill="#F24C4C"/>
<path d="M47.5274 34.0793C47.3806 34.5381 47.0686 34.7768 46.7566 34.6483C46.1692 34.428 44.1503 36.135 44.5541 36.5204C44.6825 36.6672 45.2148 36.3002 45.692 35.6945C46.1876 35.1071 46.5914 34.7951 46.5914 35.0337C46.6097 35.254 46.3528 35.6578 46.0407 35.9147C45.7287 36.1717 45.5452 36.5571 45.637 36.7774C45.7104 36.9976 45.4534 37.5482 45.0496 37.9887C44.6642 38.4292 44.4072 38.9982 44.499 39.2735C44.6091 39.5672 44.8477 39.3837 45.1414 38.7596C45.3984 38.209 45.7471 37.8419 45.9123 37.9337C46.0591 38.0254 46.2977 37.952 46.4078 37.7685C46.518 37.5666 46.4445 37.3096 46.2426 37.1812C46.0224 37.0527 46.3895 36.3002 47.1604 35.3824C48.5002 33.7489 48.6837 33.3268 48.0964 33.3268C47.9129 33.3268 47.6559 33.6755 47.5274 34.0793Z" fill="#F24C4C"/>
<path d="M42.0395 34.6476C41.6908 35.1615 41.5256 35.6938 41.6541 35.8223C41.8927 36.0609 43.2876 34.4824 43.306 33.9685C43.3243 33.3812 42.6269 33.7483 42.0395 34.6476Z" fill="#F24C4C"/>
<path d="M43.3978 34.979C42.5168 36.3555 42.4066 36.6309 42.8471 36.6309C43.1224 36.6309 44.7743 34.2632 44.7743 33.8777C44.7743 33.3455 44.1319 33.8594 43.3978 34.979Z" fill="#F24C4C"/>
<path d="M32.165 35.9151C32.0365 36.5392 31.7979 36.9613 31.6511 36.8695C31.0637 36.5025 30.9353 42.7612 31.5226 43.3486C31.7429 43.5688 31.9264 44.5783 31.9264 45.5694C31.9264 46.5789 32.0365 47.2947 32.1834 47.1479C32.3118 47.0194 32.3852 46.0466 32.3302 44.9821C32.2384 42.853 32.6422 42.853 33.0093 44.9821C33.1928 45.9365 33.2662 45.3859 33.2846 43.1283C33.3213 39.8062 32.6973 38.7784 32.2751 41.4397L32.0732 42.6878L31.7979 41.3113C31.6511 40.5404 31.6511 39.7144 31.8163 39.4758C31.9631 39.2189 32.1466 38.6132 32.2201 38.136C32.2751 37.6404 32.4954 36.943 32.6789 36.5942C33.1194 35.7866 33.1378 34.7955 32.7156 34.7955C32.5321 34.7955 32.2751 35.3094 32.165 35.9151Z" fill="#F24C4C"/>
<path d="M36.1845 36.5395C36.0744 36.8882 35.8725 37.3838 35.744 37.6408C35.6339 37.8977 35.6889 38.0996 35.8725 38.0996C36.1661 38.0996 37.0655 36.5579 37.0655 36.0623C37.0655 35.6034 36.3864 35.9705 36.1845 36.5395Z" fill="#F24C4C"/>
<path d="M40.1858 36.2627C39.6718 37.0336 38.9193 39.2728 38.9193 39.9335C38.9193 40.2272 39.3415 39.6582 39.837 38.6487C40.718 36.85 40.9933 35.0146 40.1858 36.2627Z" fill="#F24C4C"/>
<path d="M41.3052 38.2828C40.6628 39.8429 40.6078 40.3018 41.0483 40.3018C41.4337 40.3018 42.3881 37.4385 42.0945 37.1448C41.9843 37.0164 41.6173 37.5303 41.3052 38.2828Z" fill="#F24C4C"/>
<path d="M37.9097 37.8238C37.7078 38.0807 37.4508 38.6681 37.3223 39.1269C37.0287 40.3934 37.8913 39.9161 38.2217 38.6497C38.552 37.4383 38.4419 37.1447 37.9097 37.8238Z" fill="#F24C4C"/>
<path d="M29.7241 39.8601C29.7241 40.2272 29.5405 40.7044 29.3019 40.943C28.8981 41.3468 28.9899 42.9253 29.669 47.8258L29.981 50.0283L30.0177 46.9081C30.0361 44.7974 29.926 44.0265 29.7057 44.5221C29.5038 44.9993 29.4671 44.5588 29.5956 43.2373C29.9994 39.6215 30.3481 40.1538 30.6785 44.8341C30.9171 48.2113 31.5595 50.1752 31.5595 47.5689C31.5778 45.7334 30.3665 39.1994 30.0361 39.1994C29.8525 39.1994 29.7241 39.493 29.7241 39.8601Z" fill="#F24C4C"/>
<path d="M36.8639 41.5682C36.5519 42.3208 36.3867 43.0366 36.4968 43.1467C36.6069 43.2568 36.9556 42.7245 37.2677 41.972C37.5797 41.2195 37.7449 40.5037 37.6348 40.3936C37.5246 40.2834 37.1759 40.8157 36.8639 41.5682Z" fill="#F24C4C"/>
<path d="M38.0565 42.229L37.4508 43.7891L38.185 42.9264C38.7907 42.1922 39.1945 40.6689 38.7723 40.6689C38.6989 40.6689 38.3685 41.3663 38.0565 42.229Z" fill="#F24C4C"/>
<path d="M30.4765 49.6992C30.4398 50.8372 31.2107 52.8195 31.5961 52.5809C32.0549 52.3055 32.0182 49.1119 31.5594 49.1119C31.3575 49.1119 31.1739 49.4056 31.1739 49.7543C31.1372 50.3049 31.1005 50.2866 30.8252 49.6625C30.5132 48.9467 30.5132 48.9467 30.4765 49.6992Z" fill="#F24C4C"/>
<path d="M29.5402 51.3682C29.2833 52.0473 29.9073 53.5156 30.4763 53.5156C30.9351 53.5156 30.9168 53.4606 30.2927 51.9922C29.889 51.0378 29.7238 50.891 29.5402 51.3682Z" fill="#F24C4C"/>
<path d="M35.1198 22.2227C34.0369 23.5809 31.7059 26.8479 29.9623 29.4726C28.2003 32.0972 25.8693 35.5478 24.7681 37.1263C23.6485 38.7231 22.7675 40.3015 22.7675 40.6136C22.7858 41.0541 22.8959 40.9807 23.1162 40.43C23.6668 39.0718 24.2358 39.0351 23.9972 40.375C23.832 41.4028 23.8687 41.4762 24.2358 40.9072C24.456 40.5402 24.5662 39.9161 24.456 39.494C24.2358 38.6497 28.0718 33.1618 28.6408 33.5289C28.8243 33.639 28.8794 33.4554 28.7326 33.1067C28.5674 32.6479 28.6224 32.5561 28.9895 32.7763C29.3015 32.9599 29.375 32.9232 29.2281 32.6662C28.9345 32.189 33.4129 25.2144 33.835 25.4714C33.9819 25.5815 34.0186 25.3796 33.8717 25.0309C33.6882 24.5353 33.78 24.4435 34.2755 24.6271C34.6426 24.7739 34.8078 24.7372 34.6793 24.4986C34.5508 24.2967 35.0097 23.3606 35.6888 22.4062C38.2767 18.8272 37.9097 18.717 35.1198 22.2227Z" fill="#F24C4C"/>
<path d="M32.2569 28.5358C31.798 29.3434 31.2841 30.0225 31.1189 30.0225C30.9537 30.0225 30.8619 30.151 30.8986 30.2978C30.9354 30.4446 30.605 31.2889 30.1461 32.1699C28.7879 34.7579 29.5404 34.3357 31.1005 31.6193C33.1379 28.1136 33.4866 27.4162 33.2847 27.2143C33.1746 27.1225 32.7157 27.7098 32.2569 28.5358Z" fill="#F24C4C"/>
<path d="M27.4847 27.858C27.3562 28.5922 27.136 29.3447 26.6404 30.7213C26.31 31.6206 26.1081 32.4098 26.1816 32.4833C26.255 32.5567 26.6955 31.6206 27.1543 30.3909C27.6132 29.1612 27.8885 28.0599 27.76 27.9314C27.6315 27.8029 27.5031 27.7662 27.4847 27.858Z" fill="#F24C4C"/>
<path d="M22.2171 33.8956C21.8684 35.0335 21.6848 36.0614 21.7949 36.1715C22.0152 36.3918 22.162 36.0247 22.6943 33.712C23.2449 31.326 22.9145 31.4545 22.2171 33.8956Z" fill="#F24C4C"/>
<path d="M27.1544 35.5103C26.512 37.0887 26.8607 37.5109 27.5949 36.0609C27.9436 35.3818 28.0904 34.7394 27.9253 34.6293C27.7417 34.5192 27.4113 34.923 27.1544 35.5103Z" fill="#F24C4C"/>
<path d="M23.1165 42.6321C22.8045 42.8523 22.0887 43.9536 21.5013 45.0732C19.5374 48.7624 17.9773 50.9832 17.5552 50.7263C17.2982 50.5794 17.2248 50.6345 17.3716 50.8547C17.6286 51.2585 14.8388 55.9572 12.416 59.2059C11.1129 60.9312 10.7641 61.8856 11.8287 60.8027C12.3977 60.2337 20.8956 47.3858 22.6944 44.3757C23.9424 42.32 24.0342 41.9162 23.1165 42.6321Z" fill="#F24C4C"/>
<path d="M21.3727 53.0398C20.969 54.0125 20.3633 55.8663 20.0329 57.1878C18.95 61.6112 17.7019 65.2269 17.0595 65.8693C16.6374 66.2915 16.5639 66.5668 16.8209 66.6586C17.0595 66.732 17.2431 66.9522 17.2431 67.1541C17.2431 67.356 17.0962 67.4111 16.9127 67.301C16.5089 67.0624 15.3893 69.7421 15.4443 70.8617C15.4627 71.7427 15.5912 71.5408 15.9399 69.944C16.05 69.3933 16.3804 68.9345 16.6374 68.9345C16.9127 68.9345 17.4266 67.9617 17.812 66.6953C18.3443 64.9149 18.5462 64.5845 18.7848 65.1352C19.0418 65.6858 19.0601 65.6491 18.9316 64.9333C18.7481 63.9972 19.9778 58.9131 21.4645 54.453C22.5474 51.2227 22.4923 50.3968 21.3727 53.0398Z" fill="#F24C4C"/>
<path d="M19.3722 52.8554C18.3994 54.3421 17.5368 56.1775 17.9222 55.9389C18.3811 55.6636 20.2349 52.3598 20.0513 52.1579C19.9779 52.0845 19.6659 52.3965 19.3722 52.8554Z" fill="#F24C4C"/>
<path d="M38.1852 56.7287C37.5796 57.2243 36.9004 59.1882 35.3954 64.7128C33.0094 73.4494 33.0461 73.1373 34.5878 72.8437C35.946 72.5684 37.7998 70.7513 37.7998 69.6684C37.7998 68.6406 41.7459 68.5671 42.058 69.5766C42.5535 71.2285 43.251 72.0728 44.5174 72.55C46.463 73.3025 46.7016 72.8437 45.8756 70.0355C45.5086 68.714 44.5908 65.4102 43.875 62.6938C42.2232 56.4167 40.6263 54.7464 38.1852 56.7287ZM40.8282 63.6849C41.4523 66.2729 41.4339 66.3646 39.7637 66.3646C38.3321 66.3646 38.3504 66.4931 39.158 63.3362C39.8922 60.5097 40.0574 60.5464 40.8282 63.6849Z" fill="#FDFDFD"/>
<path d="M66.8911 56.9126C66.4322 57.4082 65.7348 59.2252 65.1842 61.4094C64.6702 63.4283 63.7709 66.7871 63.1836 68.8612C62.0089 73.0276 62.119 73.4864 64.2114 72.6054C65.5512 72.0548 66.2671 71.2472 66.5791 69.9257C66.9278 68.439 70.8556 68.5308 71.0942 70.0175C71.2777 71.2289 72.5258 72.5137 73.8106 72.789C75.4441 73.156 75.591 72.8073 74.8752 70.3112C74.5081 69.0447 73.6087 65.7043 72.8746 62.8777C71.4062 57.3164 70.6537 56.0867 68.6715 56.0867C68.1025 56.0867 67.3316 56.4354 66.8911 56.9126ZM69.5525 63.2081C70.3417 66.1998 70.305 66.365 68.8733 66.365C67.3316 66.365 67.1481 66.1631 67.5518 64.9517C67.717 64.4195 68.0474 63.2631 68.2677 62.3821C68.7632 60.455 68.855 60.5284 69.5525 63.2081Z" fill="white"/>
<path d="M78.3258 57.3335L77.0778 58.5816V65.7948V73.0264L77.9037 72.7694C79.2619 72.3473 80.3999 71.0625 80.8404 69.3922C81.4644 67.0613 82.4922 67.2448 84.1808 69.9796C85.6125 72.3289 86.9707 73.1732 88.5858 72.7694C89.889 72.439 89.8339 72.1637 87.9251 69.484L86.2916 67.2081L87.3928 66.4005C90.3662 64.198 89.7972 58.2513 86.4751 56.6728C84.034 55.5165 79.7942 55.8652 78.3258 57.3335ZM84.5112 60.2151C86.3466 61.6101 85.2821 64.0695 82.6758 64.4183L81.1157 64.6202V62.1974V59.7563H82.5106C83.2815 59.7563 84.1808 59.9582 84.5112 60.2151Z" fill="white"/>
<path d="M49.2481 57.3511L48 58.5992V65.8124V73.0439L48.8259 72.787C50.1841 72.3648 51.3221 71.08 51.7626 69.4098C52.3866 67.0788 53.4145 67.2624 55.1031 69.9972C56.5347 72.3465 57.8929 73.1908 59.5081 72.787C60.8112 72.4566 60.7562 72.1813 58.8473 69.5016L57.2138 67.2257L58.3151 66.4181C61.2884 64.2156 60.7194 58.2688 57.3973 56.6904C54.9562 55.5341 50.7164 55.8828 49.2481 57.3511ZM55.4334 60.2327C57.2689 61.6276 56.2043 64.0871 53.598 64.4358L52.0379 64.6377V62.215V59.7739H53.4328C54.2037 59.7739 55.1031 59.9758 55.4334 60.2327Z" fill="white"/>
<path d="M96.0742 56.8205C95.3951 57.3344 94.973 58.2888 94.4958 60.216C94.1287 61.6844 93.2293 65.0615 92.4768 67.7412C91.7243 70.4209 91.2654 72.7152 91.449 72.8253C92.6236 73.5595 95.1382 71.8159 95.5787 69.9437C95.9641 68.2552 99.6717 68.402 100.131 70.1273C100.479 71.4855 102.517 73.0639 103.673 72.8804C104.572 72.7519 104.701 73.5412 102.406 64.8963C100.094 56.123 98.8824 54.5996 96.0742 56.8205ZM98.5704 63.2995C99.3046 66.4014 99.3046 66.4197 97.7261 66.2913C96.7166 66.2178 96.3863 66.0343 96.4964 65.6305C96.5698 65.3185 96.79 64.3274 96.9736 63.428C97.6527 60.1426 97.7995 60.1242 98.5704 63.2995Z" fill="#FDFDFD"/>
<path d="M109.454 56.3426C104.058 57.3888 105.068 65.8317 110.647 66.2906C112.85 66.4741 113.602 67.0248 113.235 68.1811C112.997 68.9336 112.483 69.1171 110.904 68.9703C108.647 68.7684 106.444 70.3469 106.444 72.1639V73.0449L109.987 72.8247C114.025 72.5861 115.346 71.9987 116.411 70.0348C118.209 66.676 115.676 62.6932 111.712 62.6932C110.005 62.6932 109.197 62.0141 109.565 60.8761C109.803 60.0869 110.042 59.9951 111.712 60.1236C113.878 60.2704 115.989 58.5635 115.989 56.6546C115.989 56.0857 111.822 55.9021 109.454 56.3426Z" fill="#F5F1E5"/>
<path d="M18.1242 56.8751C17.959 57.1505 18.0324 57.2055 18.3445 57.0036C18.7115 56.765 18.7666 56.8751 18.5464 57.4074C17.7755 59.2612 17.3166 61.2251 17.5919 61.4086C17.9223 61.5922 18.4546 60.1973 18.8951 58.0498C19.1337 56.8751 18.6198 56.0859 18.1242 56.8751Z" fill="#F24C4C"/>
<path d="M21.1341 58.1965C20.9506 58.8573 21.1158 61.5553 21.3727 61.8123C21.4645 61.8857 21.5196 60.968 21.5196 59.7566C21.5196 57.4256 21.4462 57.1503 21.1341 58.1965Z" fill="#F24C4C"/>
<path d="M13.4254 62.9312C13.0583 63.4452 12.6728 64.473 12.5994 65.2072C12.526 65.9413 12.3792 67.0426 12.269 67.6483C12.1773 68.254 12.0488 69.0799 11.9754 69.4837C11.9203 69.8875 11.6634 70.6033 11.4064 71.0805C11.1494 71.5577 11.0026 72.2368 11.0944 72.5855C11.1861 72.9343 11.0393 73.5216 10.764 73.8887C10.4887 74.2741 10.2684 74.8431 10.2684 75.1551C10.2684 75.5039 10.5621 75.2836 11.0026 74.6229C11.4064 74.0172 11.6634 73.3197 11.5716 73.0811C11.333 72.4571 12.0855 70.4014 12.5444 70.4014C12.7462 70.4014 12.8197 70.1444 12.6912 69.8324C12.5811 69.5204 12.6361 69.3552 12.8197 69.4653C13.0032 69.5938 13.15 69.3919 13.1317 69.0248C13.1133 68.6761 13.1867 68.1255 13.2785 67.8318C13.3703 67.5198 13.3886 67.4097 13.2969 67.5565C13.2051 67.7033 12.9849 67.8318 12.8013 67.8318C12.3608 67.8318 13.3336 65.923 14.1045 65.2806C14.4165 65.0236 14.6734 64.6198 14.6734 64.3996C14.6734 64.161 14.2696 64.473 13.7741 65.0787C13.2785 65.6844 12.8564 65.978 12.8564 65.7394C12.838 65.5008 13.0032 65.2072 13.2051 65.0787C13.407 64.9502 13.5722 64.6932 13.5722 64.4913C13.5722 64.2895 13.3886 64.2344 13.15 64.3812C12.8747 64.5464 12.8197 64.473 12.9849 64.216C13.1317 63.9774 13.4254 63.8857 13.6456 64.0141C13.8659 64.161 13.9576 64.0508 13.8475 63.7572C13.7557 63.4819 13.9209 62.9496 14.2329 62.6009C14.5266 62.2521 14.6367 61.9585 14.4532 61.9768C14.2696 61.9768 13.8108 62.4173 13.4254 62.9312Z" fill="#F24C4C"/>
<path d="M17.3532 62.4736C17.3532 62.6938 17.243 63.4464 17.0962 64.1622C16.8393 65.4103 16.8576 65.4103 17.5918 63.8502C18.4911 61.9413 18.4728 62.0882 17.8487 62.0882C17.5918 62.0882 17.3715 62.2533 17.3532 62.4736Z" fill="#F24C4C"/>
<path d="M10.8926 75.8357C10.3053 76.9186 10.0483 77.7629 10.2502 78.0749C10.6356 78.699 11.1495 77.9465 10.7825 77.2857C10.5989 76.937 10.6356 76.937 10.9844 77.249C11.3331 77.561 11.3331 77.8547 11.0211 78.442C10.8008 78.8642 10.7641 79.2129 10.9476 79.2129C11.4432 79.2129 11.7552 77.7078 11.3881 77.0471C11.1863 76.6984 11.2597 76.0927 11.6084 75.4319C12.5445 73.6149 11.9021 73.9819 10.8926 75.8357Z" fill="#F24C4C"/>
<path d="M14.343 76.6793C13.5538 77.4134 12.6728 79.1754 12.9481 79.4507C13.0215 79.5242 13.6272 78.8267 14.288 77.909C15.6095 76.0736 15.6278 75.4862 14.343 76.6793Z" fill="#F24C4C"/>
<path d="M59.164 78.3131C58.1362 79.0473 58.0995 80.7909 59.0906 81.782C60.7425 83.4339 64.2298 82.1491 64.2298 79.8916C64.2298 78.0378 60.9994 77.0283 59.164 78.3131ZM62.3943 79.2125C63.3855 80.2036 62.8165 81.415 61.3482 81.415C59.6045 81.415 58.7419 79.6713 60.1001 78.8821C61.0545 78.3131 61.5868 78.4049 62.3943 79.2125Z" fill="#F24C4C"/>
<path d="M66.7992 80.1296C66.7992 82.2954 66.8726 82.5156 67.5517 82.5156C68.2125 82.5156 68.2675 82.3504 68.0656 81.2492C67.6802 79.2302 68.1758 79.1385 69.7909 80.8821C71.9017 83.1764 72.3054 83.0479 72.3054 80.1296C72.3054 78.0923 72.2137 77.7435 71.6447 77.7435C71.1124 77.7435 71.0207 78.0005 71.1308 79.3036L71.2776 80.8637L69.6624 79.3036C67.3131 77.0277 66.7992 77.1746 66.7992 80.1296Z" fill="#F24C4C"/>
<path d="M75.6277 78.7162C73.7739 81.0839 78.0137 84.094 80.1795 81.9465C81.3542 80.7535 80.9137 79.5788 79.2802 79.5788C78.2156 79.5788 77.8118 79.7257 77.8118 80.1295C77.8118 80.4782 78.1606 80.6801 78.803 80.6801C79.5004 80.6801 79.684 80.7902 79.4087 81.0655C78.5827 81.8915 76.5454 81.3225 76.4169 80.2396C76.2701 79.0282 77.2796 78.3858 78.8764 78.7162C79.7757 78.8814 80.0143 78.808 80.0143 78.3307C80.0143 77.2295 76.5638 77.5232 75.6277 78.7162Z" fill="#F24C4C"/>
<path d="M13.5354 79.8543C12.581 81.1207 11.3513 84.6631 12.2323 83.5802C13.0399 82.5891 14.6917 79.891 14.3614 80.0929C13.774 80.46 13.8291 80.0746 14.5265 79.01C15.536 77.4683 14.8936 78.0189 13.5354 79.8543Z" fill="#F24C4C"/>
<path d="M12.8382 83.6901C12.3426 84.5161 12.1407 85.4521 12.1774 86.8103C12.2325 88.8844 12.5629 89.123 12.7281 87.1774C12.8749 85.2319 13.1135 84.1123 13.554 83.2863C14.1964 82.075 13.6458 82.387 12.8382 83.6901Z" fill="#F24C4C"/>
</svg>
